<?xml version="1.0" encoding="UTF-8"?>
<svg width="24px" height="24px" viewBox="0 0 24 24" version="1.1" xmlns="http://www.w3.org/2000/svg" xmlns:xlink="http://www.w3.org/1999/xlink">
    <title>icon/24x24_airplane_o</title>
    <desc>Created with Sketch.</desc>
    <defs>
        <path d="M22,14.1507487 C20.834,13.623907 19.448,13.2560175 17.765,12.9731025 C17.191,12.8771313 16.706,12.8061527 15.951,12.7091818 C15.982,11.8594371 15.997,11.0306861 16.001,10.098966 L20.435,12.8211482 C20.463,12.8411422 20.494,12.8591367 20.525,12.8771313 L22,13.7828592 L22,14.1507487 Z M16,21.6884842 L12.322,20.5498262 C12.226,20.5198352 12.126,20.5048398 12.026,20.5048398 L11.974,20.5048398 C11.874,20.5048398 11.774,20.5198352 11.678,20.5498262 L8,21.6884842 L8,21.4715493 L12,18.2415197 L13.605,19.5391299 L13.894,19.7730596 C13.894,19.7730596 13.895,19.7740593 13.895,19.7740593 L16,21.4755481 L16,21.6884842 Z M6.234,12.9731025 C4.551,13.2560175 3.166,13.623907 2,14.1507487 L2,13.7818595 L3.475,12.8771313 C3.506,12.8591367 3.536,12.8411422 3.565,12.8211482 L7.999,10.098966 C8.003,11.0306861 8.018,11.8584374 8.049,12.7091818 C7.294,12.8061527 6.808,12.8771313 6.234,12.9731025 Z M9.997,7.03988502 C9.998,6.87493457 9.999,6.75996911 10,6.70098683 C10,5.45436135 10.2,4.44466469 10.541,3.65190286 C10.919,2.77216716 11.631,1.99939932 12,1.99939932 C12.369,1.99939932 13.081,2.77216716 13.458,3.65190286 C13.798,4.44466469 14,5.45436135 14,6.68799073 C14,6.76096881 14.001,6.87793367 14.002,7.04488351 C14.005,7.42077059 14.006,7.80865406 14.006,8.20653452 C14.002,8.24052431 14,8.2765135 14,8.31150298 C14,8.41647145 14,8.52243961 14.001,8.77536363 C14.002,8.91132278 14.002,9.04428284 14.002,9.17524349 C13.991,10.8537392 13.953,12.6541983 13.875,14.3976745 C13.832,15.3583859 13.778,16.2491183 13.713,17.0548762 L12.751,16.2771099 C12.677,16.2131291 12.596,16.1591453 12.511,16.1171579 C12.504,16.1131591 12.498,16.1091603 12.491,16.1061612 C12.479,16.100163 12.466,16.0961642 12.454,16.0901661 C12.31,16.027185 12.155,15.9951946 12,15.9951946 C11.731,15.9951946 11.462,16.0891664 11.247,16.2791093 L10.286,17.0548762 C10.222,16.2481186 10.168,15.3583859 10.125,14.3976745 C10.048,12.6881881 10.009,10.9227185 9.998,9.27321406 C9.998,9.11226241 9.998,8.94731197 9.999,8.77836273 C10,8.52343931 10,8.41747115 10,8.31150298 C10,8.2725147 9.997,8.23452611 9.993,8.19653752 C9.993,7.80065646 9.994,7.41377269 9.997,7.03988502 Z M23.351,12.2653151 L22,11.4355644 L20,10.2079332 L19,9.59311795 L17,8.36548677 L16.006,7.75566997 C16.005,7.50974386 16.004,7.26781654 16.002,7.03088772 C16.001,6.85993908 16,6.73997512 16,6.67599434 C16,5.18744154 15.745,3.90882568 15.296,2.86313983 C14.634,1.31960355 13.417,0 12,0 C10.583,0 9.368,1.31860385 8.703,2.86214013 C8.254,3.90882568 8,5.18744154 8,6.68799073 C7.999,6.73897542 7.998,6.85793968 7.997,7.02688892 C7.995,7.26481744 7.994,7.50874416 7.994,7.75566997 L7,8.36548677 L5,9.59311795 L4,10.2079332 L2,11.4355644 L0.651,12.2643154 C0.25,12.4832497 0,12.9031235 0,13.3629854 L0,15.4093706 C0,16.2341228 0.786,16.8369417 1.583,16.6180075 C1.683,16.5910156 1.778,16.5480285 1.865,16.4920453 C2.979,15.7682628 4.498,15.2924057 6.566,14.9445102 C7.066,14.8605355 7.501,14.7965547 8.137,14.7135796 C8.206,16.1671429 8.299,17.461754 8.419,18.5624233 L6.372,20.2159266 C6.136,20.4058695 6,20.6917836 6,20.9936929 L6,22.8511349 C6,23.6988802 6.874,24.228721 7.607,23.9028189 L12,22.5432274 L16.393,23.9028189 C17.126,24.228721 18,23.6988802 18,22.8511349 L18,20.9976917 C18,20.6957824 17.863,20.4098683 17.628,20.2199254 L15.58,18.5644227 C15.701,17.4627537 15.793,16.1681426 15.862,14.7135796 C16.498,14.7965547 16.933,14.8605355 17.434,14.9445102 C19.501,15.2924057 21.02,15.7682628 22.134,16.4920453 C22.221,16.5480285 22.317,16.5910156 22.417,16.6180075 C23.213,16.8349423 24,16.2361222 24,15.4093706 L24,13.3629854 C24,12.9031235 23.748,12.4842494 23.351,12.2653151 Z" id="path-1"></path>
    </defs>
    <g id="icon/24x24_airplane_o" stroke="none" stroke-width="1" fill="none" fill-rule="evenodd">
        <mask id="mask-2" fill="white">
            <use xlink:href="#path-1"></use>
        </mask>
        <g id="24x24_airplane_o" fill-rule="nonzero"></g>
        <g id="COLOR/JJ_4.black" mask="url(#mask-2)" fill="#0F0A0A">
            <rect id="Rectangle" x="0" y="0" width="24" height="24"></rect>
        </g>
    </g>
</svg>