<?xml version="1.0" encoding="UTF-8"?>
<svg width="24px" height="24px" viewBox="0 0 24 24" version="1.1" xmlns="http://www.w3.org/2000/svg" xmlns:xlink="http://www.w3.org/1999/xlink">
    <!-- Generator: Sketch 49.1 (51147) - http://www.bohemiancoding.com/sketch -->
    <title>icon/24x24_alert_triangle_o</title>
    <desc>Created with Sketch.</desc>
    <defs>
        <path d="M9.30768217,2.5856146 C9.88078353,1.59921351 10.9002415,1 11.9994794,1 C13.0987174,1 14.1181753,1.59921351 14.6912767,2.5856146 L23.578569,18.0752331 C24.1373318,19.0854528 24.140668,20.3293456 23.5873327,21.3428162 C23.0339974,22.3562867 22.0071009,22.987113 20.8782566,23 L3.10918128,22.9999339 C1.99185795,22.987113 0.964961477,22.3562867 0.411626149,21.3428162 C-0.141709185,20.3293456 -0.138373049,19.0854528 0.428904993,18.060119 L9.30768217,2.5856146 Z M2.23595938,19.1697432 C2.04970508,19.5064832 2.04859303,19.9211141 2.23303814,20.2589376 C2.41748325,20.5967611 2.75978208,20.8070365 3.12070223,20.8112441 L20.8667356,20.8113102 C21.2391767,20.8070365 21.5814756,20.5967611 21.7659207,20.2589376 C21.9503657,19.9211141 21.9492538,19.5064832 21.7715146,19.1848574 L12.8957433,3.71555883 C12.7057114,3.38849376 12.3658921,3.18875592 11.9994794,3.18875592 C11.6338702,3.18875592 11.2947377,3.38761884 11.1044677,3.71340934 L2.23595938,19.1697432 Z M10.9512177,8.77308651 C10.9512177,8.16867824 11.4205404,7.67870854 11.9994794,7.67870854 C12.5784184,7.67870854 13.0477412,8.16867824 13.0477412,8.77308651 L13.0477412,13.1505984 C13.0477412,13.7550067 12.5784184,14.2449764 11.9994794,14.2449764 C11.4205404,14.2449764 10.9512177,13.7550067 10.9512177,13.1505984 L10.9512177,8.77308651 Z M11.2582464,17.2075743 C10.8488747,16.7801931 10.8488747,16.0872713 11.2582464,15.6598902 C11.6676181,15.232509 12.3313407,15.232509 12.7407124,15.6598902 C13.1500841,16.0872713 13.1500841,16.7801931 12.7407124,17.2075743 C12.3313407,17.6349555 11.6676181,17.6349555 11.2582464,17.2075743 Z" id="path-1"></path>
    </defs>
    <g id="icon/24x24_alert_triangle_o" stroke="none" stroke-width="1" fill="none" fill-rule="evenodd">
        <mask id="mask-2" fill="white">
            <use xlink:href="#path-1"></use>
        </mask>
        <g id="24x24_alert_triangle_o" fill-rule="nonzero"></g>
        <g id="COLOR/JJ_4.black" mask="url(#mask-2)" fill="#0F0A0A">
            <rect id="Rectangle" x="0" y="0" width="24" height="24"></rect>
        </g>
    </g>
</svg>