<?xml version="1.0" encoding="UTF-8"?>
<svg width="24px" height="24px" viewBox="0 0 24 24" version="1.1" xmlns="http://www.w3.org/2000/svg" xmlns:xlink="http://www.w3.org/1999/xlink">
    <!-- Generator: Sketch 49.1 (51147) - http://www.bohemiancoding.com/sketch -->
    <title>icon/24x24_bbq_o</title>
    <desc>Created with Sketch.</desc>
    <defs>
        <path d="M12,16.0007 C11.448,16.0007 11,16.4487 11,17.0007 L11,18.4217 C7.94,17.9817 5.511,15.5617 5.071,12.5007 L18.929,12.5007 C18.489,15.5617 16.06,17.9817 13,18.4217 L13,17.0007 C13,16.4487 12.552,16.0007 12,16.0007 Z M8.25,5.7817 C8.754,6.6427 9.504,7.6067 10.476,7.9877 C11.13,8.2427 11.813,8.2117 12.447,7.8957 C13.889,7.1737 14.034,5.4167 13.798,3.7917 L14.896,4.7007 C15.96,5.5817 16.286,6.8747 15.725,7.9967 C15.126,9.1947 13.629,10.0007 12,10.0007 C10.371,10.0007 8.874,9.1947 8.275,7.9967 C7.916,7.2777 7.92,6.4877 8.25,5.7817 Z M17.832,18.4456835 C17.817,18.4236834 17.794,18.4126834 17.777,18.3916833 C19.745,16.7396784 21,14.264671 21,11.5006628 C21,10.9486611 20.552,10.5006598 20,10.5006598 L16.221,10.5006598 C16.756,10.0446584 17.205,9.50865684 17.514,8.890655 C18.491,6.93664919 17.952,4.63264232 16.172,3.16063794 L12.635,0.230629216 C12.282,-0.0613716531 11.777,-0.0783717037 11.408,0.192629103 C11.039,0.461629904 10.899,0.947631352 11.069,1.37263262 C11.837,3.28963833 12.215,5.77464573 11.553,6.10564671 C11.426,6.1686469 11.333,6.17464692 11.206,6.12564677 C10.536,5.86364599 9.733,4.44964178 9.401,3.57663918 C9.287,3.27463828 9.033,3.0466376 8.721,2.96363735 C8.408,2.8796371 8.077,2.95363733 7.828,3.15963794 C6.048,4.63264232 5.509,6.93664919 6.486,8.890655 C6.795,9.50865684 7.244,10.0446584 7.779,10.5006598 L4,10.5006598 C3.448,10.5006598 3,10.9486611 3,11.5006628 C3,14.264671 4.255,16.7396784 6.222,18.3916833 C6.206,18.4126834 6.183,18.4236834 6.168,18.4456835 L4.168,21.4456924 C3.862,21.9056938 3.986,22.5266956 4.445,22.8326965 C4.616,22.9466969 4.809,23.000697 4.999,23.000697 C5.322,23.000697 5.639,22.8446966 5.832,22.5556957 L7.832,19.5556868 C7.847,19.5326867 7.849,19.5066866 7.861,19.4836865 C8.82,19.982688 9.878,20.316689 11,20.4416894 L11,23.000697 C11,23.5526987 11.448,24.0007 12,24.0007 C12.552,24.0007 13,23.5526987 13,23.000697 L13,20.4416894 C14.122,20.316689 15.18,19.982688 16.139,19.4836865 C16.151,19.5066866 16.153,19.5326867 16.168,19.5556868 L18.168,22.5556957 C18.361,22.8446966 18.678,23.000697 19.001,23.000697 C19.191,23.000697 19.384,22.9466969 19.555,22.8326965 C20.014,22.5266956 20.138,21.9056938 19.832,21.4456924 L17.832,18.4456835 Z" id="path-1"></path>
    </defs>
    <g id="icon/24x24_bbq_o" stroke="none" stroke-width="1" fill="none" fill-rule="evenodd">
        <mask id="mask-2" fill="white">
            <use xlink:href="#path-1"></use>
        </mask>
        <g id="24x24_bbq_o" fill-rule="nonzero"></g>
        <g id="COLOR/JJ_4.black" mask="url(#mask-2)" fill="#0F0A0A">
            <rect id="Rectangle" x="0" y="0" width="24" height="24"></rect>
        </g>
    </g>
</svg>