<?xml version="1.0" encoding="UTF-8"?>
<svg width="24px" height="24px" viewBox="0 0 24 24" version="1.1" xmlns="http://www.w3.org/2000/svg" xmlns:xlink="http://www.w3.org/1999/xlink">
    <!-- Generator: Sketch 49.1 (51147) - http://www.bohemiancoding.com/sketch -->
    <title>icon/24x24_beauty_o</title>
    <desc>Created with Sketch.</desc>
    <defs>
        <path d="M8.707,8.707 C8.512,8.902 8.256,9 8,9 C7.744,9 7.488,8.902 7.293,8.707 C6.902,8.316 6.902,7.684 7.293,7.293 L10.293,4.293 C10.684,3.902 11.316,3.902 11.707,4.293 C12.098,4.684 12.098,5.316 11.707,5.707 L8.707,8.707 Z M8.293,11.707 C7.902,11.316 7.902,10.684 8.293,10.293 L14.293,4.293 C14.684,3.902 15.316,3.902 15.707,4.293 C16.098,4.684 16.098,5.316 15.707,5.707 L9.707,11.707 C9.512,11.902 9.256,12 9,12 C8.744,12 8.488,11.902 8.293,11.707 Z M2.0508,9 L4.0698,9 C4.5628,12.945 7.9208,16 11.9998,16 C16.0788,16 19.4378,12.945 19.9308,9 L21.9488,9 C21.4458,14.046 17.1758,18 11.9998,18 C6.8238,18 2.5548,14.046 2.0508,9 Z M11.9998,2 C15.3088,2 17.9998,4.691 17.9998,8 C17.9998,11.309 15.3088,14 11.9998,14 C8.6918,14 5.9998,11.309 5.9998,8 C5.9998,4.691 8.6918,2 11.9998,2 Z M23.9998,8 C23.9998,7.447 23.5528,7 22.9998,7 L19.9308,7 C19.4378,3.055 16.0788,0 11.9998,0 C7.9208,0 4.5628,3.055 4.0698,7 L0.9998,7 C0.4468,7 -0.0002,7.447 -0.0002,8 C-0.0002,14.279 4.8498,19.438 10.9998,19.949 L10.9998,22 L9.9998,22 C9.4468,22 8.9998,22.447 8.9998,23 C8.9998,23.553 9.4468,24 9.9998,24 L13.9998,24 C14.5528,24 14.9998,23.553 14.9998,23 C14.9998,22.447 14.5528,22 13.9998,22 L12.9998,22 L12.9998,19.949 C19.1508,19.438 23.9998,14.279 23.9998,8 Z" id="path-1"></path>
    </defs>
    <g id="icon/24x24_beauty_o" stroke="none" stroke-width="1" fill="none" fill-rule="evenodd">
        <mask id="mask-2" fill="white">
            <use xlink:href="#path-1"></use>
        </mask>
        <g id="24x24_beauty_o" fill-rule="nonzero"></g>
        <g id="COLOR/JJ_4.black" mask="url(#mask-2)" fill="#0F0A0A">
            <rect id="Rectangle" x="0" y="0" width="24" height="24"></rect>
        </g>
    </g>
</svg>