<?xml version="1.0" encoding="UTF-8"?>
<svg width="24px" height="24px" viewBox="0 0 24 24" version="1.1" xmlns="http://www.w3.org/2000/svg" xmlns:xlink="http://www.w3.org/1999/xlink">
    <!-- Generator: Sketch 49.1 (51147) - http://www.bohemiancoding.com/sketch -->
    <title>icon/24x24_been_here_o</title>
    <desc>Created with Sketch.</desc>
    <defs>
        <path d="M6,10 C6,7.791 7.791,6 10,6 C12.209,6 14,7.791 14,10 C14,12.209 12.209,14 10,14 C7.791,14 6,12.209 6,10 Z M12,10 C12,8.896 11.104,8 10,8 C8.896,8 8,8.896 8,10 C8,11.104 8.896,12 10,12 C11.104,12 12,11.104 12,10 Z M10,21.7725 L10.6,22.2005 C11.042,22.5315 11.131,23.1585 10.8,23.5995 C10.469,24.0425 9.842,24.1305 9.4,23.7995 L9.027,23.5395 C8.708,23.3085 8.353,23.0395 7.971,22.7355 C6.882,21.8685 5.793,20.8885 4.774,19.8125 C1.803,16.6755 0,13.3715 0,10.0005 C0,4.4775 4.478,0.0005 10,0.0005 C15.522,0.0005 20,4.4775 20,10.0005 C20,10.5525 19.553,11.0005 19,11.0005 C18.447,11.0005 18,10.5525 18,10.0005 C18,5.5825 14.418,2.0005 10,2.0005 C5.582,2.0005 2,5.5825 2,10.0005 C2,12.7525 3.572,15.6365 6.226,18.4375 C7.176,19.4395 8.196,20.3585 9.217,21.1705 C9.495,21.3925 9.758,21.5935 10,21.7725 Z M23.707,10.293 C24.098,10.684 24.098,11.316 23.707,11.707 L13.707,21.707 C13.316,22.098 12.684,22.098 12.293,21.707 L8.293,17.707 C7.902,17.316 7.902,16.684 8.293,16.293 C8.684,15.902 9.316,15.902 9.707,16.293 L13,19.586 L22.293,10.293 C22.684,9.902 23.316,9.902 23.707,10.293 Z" id="path-1"></path>
    </defs>
    <g id="icon/24x24_been_here_o" stroke="none" stroke-width="1" fill="none" fill-rule="evenodd">
        <mask id="mask-2" fill="white">
            <use xlink:href="#path-1"></use>
        </mask>
        <g id="24x24_been_here_o" fill-rule="nonzero"></g>
        <g id="COLOR/JJ_4.black" mask="url(#mask-2)" fill="#0F0A0A">
            <rect id="Rectangle" x="0" y="0" width="24" height="24"></rect>
        </g>
    </g>
</svg>