<?xml version="1.0" encoding="UTF-8"?>
<svg width="24px" height="24px" viewBox="0 0 24 24" version="1.1" xmlns="http://www.w3.org/2000/svg" xmlns:xlink="http://www.w3.org/1999/xlink">
    <!-- Generator: Sketch 49.1 (51147) - http://www.bohemiancoding.com/sketch -->
    <title>icon/24x24_bell_o</title>
    <desc>Created with Sketch.</desc>
    <defs>
        <path d="M18.5454545,14.1818181 L18.5454545,8.72727263 C18.5454545,5.11231795 15.6149547,2.18181818 12,2.18181818 C8.38504532,2.18181818 5.45454551,5.11231795 5.45454545,8.72727262 L5.45454545,14.1818181 C5.45454545,14.9766264 5.24204883,15.7218035 4.8707686,16.3636363 L19.1292314,16.3636363 C18.7579512,15.7218035 18.5454545,14.9766264 18.5454545,14.1818181 Z M22.9090909,18.5454544 L1.09090909,18.5454544 C-0.363636363,18.5454544 -0.363636363,16.3636363 1.09090909,16.3636363 C2.295894,16.3636363 3.27272727,15.386803 3.27272727,14.1818181 L3.27272727,8.7272726 C3.27272735,3.90733301 7.18006042,0 12,0 C16.8199396,0 20.7272726,3.90733301 20.7272727,8.72727262 L20.7272727,14.1818181 C20.7272727,15.386803 21.704106,16.3636363 22.9090909,16.3636363 C24.3636363,16.3636363 24.3636363,18.5454544 22.9090909,18.5454544 Z M14.8309091,22.3655692 C14.2454219,23.3748854 13.1668395,23.996134 12,23.996134 C10.8331605,23.996134 9.75457815,23.3748854 9.16909091,22.3655692 C8.74721364,21.6382988 9.27195219,20.7272726 10.1127273,20.7272726 L13.8872727,20.7272726 C14.7280478,20.7272726 15.2527863,21.6382988 14.8309091,22.3655692 Z" id="path-1"></path>
    </defs>
    <g id="icon/24x24_bell_o" stroke="none" stroke-width="1" fill="none" fill-rule="evenodd">
        <mask id="mask-2" fill="white">
            <use xlink:href="#path-1"></use>
        </mask>
        <g id="24x24_bell_o" fill-rule="nonzero"></g>
        <g id="COLOR/JJ_4.black" mask="url(#mask-2)" fill="#0F0A0A">
            <rect id="Rectangle" x="0" y="0" width="24" height="24"></rect>
        </g>
    </g>
</svg>