<?xml version="1.0" encoding="UTF-8"?>
<svg width="24px" height="24px" viewBox="0 0 24 24" version="1.1" xmlns="http://www.w3.org/2000/svg" xmlns:xlink="http://www.w3.org/1999/xlink">
    <!-- Generator: Sketch 49.1 (51147) - http://www.bohemiancoding.com/sketch -->
    <title>icon/24x24_bubble_tea_o</title>
    <desc>Created with Sketch.</desc>
    <defs>
        <path d="M18,6.9999 L6,6.9999 L5.387,6.9999 L5.721,5.9999 L18.279,5.9999 L18.613,6.9999 L18,6.9999 Z M10,18.9999 C9.448,18.9999 9,18.5529 9,17.9999 C9,17.4469 9.448,16.9999 10,16.9999 C10.552,16.9999 11,17.4469 11,17.9999 C11,18.5529 10.552,18.9999 10,18.9999 Z M14,18.9999 C13.448,18.9999 13,18.5529 13,17.9999 C13,17.4469 13.448,16.9999 14,16.9999 C14.552,16.9999 15,17.4469 15,17.9999 C15,18.5529 14.552,18.9999 14,18.9999 Z M12,20.9999 C11.448,20.9999 11,20.5529 11,19.9999 C11,19.4469 11.448,18.9999 12,18.9999 C12.552,18.9999 13,19.4469 13,19.9999 C13,20.5529 12.552,20.9999 12,20.9999 Z M15.125,21.9999 L8.875,21.9999 L7.142,8.9999 L16.858,8.9999 L15.125,21.9999 Z M20.949,7.6839 L19.949,4.6839 C19.812,4.2749 19.431,3.9999 19,3.9999 L15.618,3.9999 L16.895,1.4469 C17.142,0.9529 16.941,0.3529 16.447,0.1049 C15.951,-0.1411 15.352,0.0589 15.105,0.5529 L13.382,3.9999 L5,3.9999 C4.569,3.9999 4.187,4.2749 4.051,4.6839 L3.051,7.6839 C2.95,7.9879 3.001,8.3239 3.189,8.5849 C3.377,8.8459 3.679,8.9999 4,8.9999 L5.125,8.9999 L7.009,23.1319 C7.075,23.6289 7.499,23.9999 8,23.9999 L16,23.9999 C16.501,23.9999 16.925,23.6289 16.991,23.1319 L18.875,8.9999 L20,8.9999 C20.321,8.9999 20.623,8.8459 20.811,8.5849 C20.999,8.3239 21.05,7.9879 20.949,7.6839 Z" id="path-1"></path>
    </defs>
    <g id="icon/24x24_bubble_tea_o" stroke="none" stroke-width="1" fill="none" fill-rule="evenodd">
        <mask id="mask-2" fill="white">
            <use xlink:href="#path-1"></use>
        </mask>
        <g id="24x24_bubble_tea_o" fill-rule="nonzero"></g>
        <g id="COLOR/JJ_4.black" mask="url(#mask-2)" fill="#0F0A0A">
            <rect id="Rectangle" x="0" y="0" width="24" height="24"></rect>
        </g>
    </g>
</svg>