<?xml version="1.0" encoding="UTF-8"?>
<svg width="24px" height="24px" viewBox="0 0 24 24" version="1.1" xmlns="http://www.w3.org/2000/svg" xmlns:xlink="http://www.w3.org/1999/xlink">
    <!-- Generator: Sketch 49.1 (51147) - http://www.bohemiancoding.com/sketch -->
    <title>icon/24x24_calendar_o</title>
    <desc>Created with Sketch.</desc>
    <defs>
        <path d="M20.8,8.72727273 L20.8,5.45454545 C20.8,4.852053 20.3075132,4.36363636 19.7,4.36363636 L17.5,4.36363636 L17.5,5.45454545 C17.5,6.05703791 17.0075132,6.54545455 16.4,6.54545455 C15.7924868,6.54545455 15.3,6.05703791 15.3,5.45454545 L15.3,4.36363636 L8.7,4.36363636 L8.7,5.45454545 C8.7,6.05703791 8.20751322,6.54545455 7.6,6.54545455 C6.99248677,6.54545455 6.5,6.05703791 6.5,5.45454545 L6.5,4.36363636 L4.3,4.36363636 C3.69248677,4.36363636 3.2,4.852053 3.2,5.45454545 L3.2,8.72727273 L20.8,8.72727273 Z M20.8,10.9090909 L3.2,10.9090909 L3.2,20.7272727 C3.2,21.3297651 3.69248677,21.8181818 4.3,21.8181818 L19.7,21.8181818 C20.3075132,21.8181818 20.8,21.3297651 20.8,20.7272727 L20.8,10.9090909 Z M8.7,2.18181818 L15.3,2.18181818 L15.3,1.09090909 C15.3,0.488416636 15.7924868,0 16.4,0 C17.0075132,0 17.5,0.488416636 17.5,1.09090909 L17.5,2.18181818 L19.7,2.18181818 C21.5225396,2.18181818 23,3.64706809 23,5.45454545 L23,20.7272727 C23,22.53475 21.5225396,24 19.7,24 L4.3,24 C2.47746033,24 1,22.53475 1,20.7272727 L1,5.45454545 C1,3.64706809 2.47746033,2.18181818 4.3,2.18181818 L6.5,2.18181818 L6.5,1.09090909 C6.5,0.488416636 6.99248678,0 7.6,0 C8.20751322,0 8.7,0.488416636 8.7,1.09090909 L8.7,2.18181818 Z" id="path-1"></path>
    </defs>
    <g id="icon/24x24_calendar_o" stroke="none" stroke-width="1" fill="none" fill-rule="evenodd">
        <mask id="mask-2" fill="white">
            <use xlink:href="#path-1"></use>
        </mask>
        <g id="24x24_calendar_o" fill-rule="nonzero"></g>
        <g id="COLOR/JJ_4.black" mask="url(#mask-2)" fill="#0F0A0A">
            <rect id="Rectangle" x="0" y="0" width="24" height="24"></rect>
        </g>
    </g>
</svg>