<?xml version="1.0" encoding="UTF-8"?>
<svg width="24px" height="24px" viewBox="0 0 24 24" version="1.1" xmlns="http://www.w3.org/2000/svg" xmlns:xlink="http://www.w3.org/1999/xlink">
    <!-- Generator: Sketch 49.1 (51147) - http://www.bohemiancoding.com/sketch -->
    <title>icon/24x24_car_o</title>
    <desc>Created with Sketch.</desc>
    <defs>
        <path d="M19.501,10.7109 C22.105,11.2169 24,13.4649 24,16.1669 C24,16.7199 23.553,17.1669 23,17.1669 C22.447,17.1669 22,16.7199 22,16.1669 C22,14.3059 20.592,12.7799 18.724,12.6189 C18.347,12.5869 18.021,12.3449 17.881,11.9929 C16.914,9.5669 14.606,7.9999 12,7.9999 C9.394,7.9999 7.086,9.5669 6.119,11.9929 C5.98,12.3449 5.653,12.5869 5.276,12.6189 C3.408,12.7799 2,14.3059 2,16.1669 C2,16.7199 1.553,17.1669 1,17.1669 C0.447,17.1669 0,16.7199 0,16.1669 C0,13.4649 1.896,11.2169 4.499,10.7109 C5.885,7.8299 8.769,5.9999 12,5.9999 C15.231,5.9999 18.115,7.8299 19.501,10.7109 Z M12,13 L9,13 C8.692,13 8.401,12.858 8.212,12.616 C8.022,12.373 7.955,12.057 8.029,11.758 C8.435,10.134 10.067,9 12,9 C12.553,9 13,9.447 13,10 L13,12 C13,12.553 12.553,13 12,13 Z M5.583,13.333 C7.145,13.333 8.417,14.604 8.417,16.167 C8.417,17.729 7.145,19 5.583,19 C4.021,19 2.75,17.729 2.75,16.167 C2.75,14.604 4.021,13.333 5.583,13.333 Z M5.583,17 C6.043,17 6.417,16.626 6.417,16.167 C6.417,15.707 6.043,15.333 5.583,15.333 C5.124,15.333 4.75,15.707 4.75,16.167 C4.75,16.626 5.124,17 5.583,17 Z M18.417,13.333 C19.979,13.333 21.25,14.604 21.25,16.167 C21.25,17.729 19.979,19 18.417,19 C16.855,19 15.583,17.729 15.583,16.167 C15.583,14.604 16.855,13.333 18.417,13.333 Z M18.417,17 C18.876,17 19.25,16.626 19.25,16.167 C19.25,15.707 18.876,15.333 18.417,15.333 C17.957,15.333 17.583,15.707 17.583,16.167 C17.583,16.626 17.957,17 18.417,17 Z M13.833,15.167 C14.386,15.167 14.833,15.614 14.833,16.167 C14.833,16.72 14.386,17.167 13.833,17.167 L10.167,17.167 C9.614,17.167 9.167,16.72 9.167,16.167 C9.167,15.614 9.614,15.167 10.167,15.167 L13.833,15.167 Z" id="path-1"></path>
    </defs>
    <g id="icon/24x24_car_o" stroke="none" stroke-width="1" fill="none" fill-rule="evenodd">
        <mask id="mask-2" fill="white">
            <use xlink:href="#path-1"></use>
        </mask>
        <use id="Mask" fill="#010202" xlink:href="#path-1"></use>
        <g id="COLOR/JJ_4.black" mask="url(#mask-2)" fill="#0F0A0A">
            <rect id="Rectangle" x="0" y="0" width="24" height="24"></rect>
        </g>
    </g>
</svg>