<?xml version="1.0" encoding="UTF-8"?>
<svg width="24px" height="24px" viewBox="0 0 24 24" version="1.1" xmlns="http://www.w3.org/2000/svg" xmlns:xlink="http://www.w3.org/1999/xlink">
    <!-- Generator: Sketch 49.1 (51147) - http://www.bohemiancoding.com/sketch -->
    <title>icon/24x24_check_squareo</title>
    <desc>Created with Sketch.</desc>
    <defs>
        <path d="M10.9090909,12.644365 L22.1377017,1.32218254 C22.5637282,0.892605823 23.2544536,0.892605823 23.6804801,1.32218254 C24.1065067,1.75175926 24.1065067,2.44824074 23.6804801,2.87781746 L11.6804801,14.9778175 C11.2544536,15.4073942 10.5637282,15.4073942 10.1377017,14.9778175 L6.86497442,11.6778175 C6.43894792,11.2482407 6.43894792,10.5517592 6.86497442,10.1221825 C7.29100092,9.69260582 7.98172635,9.69260582 8.40775285,10.1221825 L10.9090909,12.644365 Z M19.6363636,12 C19.6363636,11.3924868 20.1247803,10.9 20.7272727,10.9 C21.3297651,10.9 21.8181818,11.3924868 21.8181818,12 L21.8181818,19.7 C21.8181818,21.5225396 20.3529319,23 18.5454545,23 L3.27272727,23 C1.46524991,23 0,21.5225396 0,19.7 L0,4.3 C0,2.47746033 1.46524991,1 3.27272727,1 L15.2727273,1 C15.8752197,1 16.3636364,1.49248677 16.3636364,2.1 C16.3636364,2.70751323 15.8752197,3.2 15.2727273,3.2 L3.27272727,3.2 C2.67023482,3.2 2.18181818,3.69248677 2.18181818,4.3 L2.18181818,19.7 C2.18181818,20.3075132 2.67023482,20.8 3.27272727,20.8 L18.5454545,20.8 C19.1479469,20.8 19.6363636,20.3075132 19.6363636,19.7 L19.6363636,12 Z" id="path-1"></path>
    </defs>
    <g id="icon/24x24_check_squareo" stroke="none" stroke-width="1" fill="none" fill-rule="evenodd">
        <mask id="mask-2" fill="white">
            <use xlink:href="#path-1"></use>
        </mask>
        <g id="24x24_check_squareo" fill-rule="nonzero"></g>
        <g id="COLOR/JJ_4.black" mask="url(#mask-2)" fill="#0F0A0A">
            <rect id="Rectangle" x="0" y="0" width="24" height="24"></rect>
        </g>
    </g>
</svg>