<?xml version="1.0" encoding="UTF-8"?>
<svg width="24px" height="24px" viewBox="0 0 24 24" version="1.1" xmlns="http://www.w3.org/2000/svg" xmlns:xlink="http://www.w3.org/1999/xlink">
    <!-- Generator: Sketch 49.1 (51147) - http://www.bohemiancoding.com/sketch -->
    <title>icon/24x24_clock_o</title>
    <desc>Created with Sketch.</desc>
    <defs>
        <path d="M12,24 C5.372583,24 0,18.6274169 0,12 C0,5.372583 5.372583,0 12,0 C18.6274169,0 24,5.372583 24,12 C24,18.6274169 18.6274169,24 12,24 Z M12,21.8181818 C17.422432,21.8181818 21.8181818,17.422432 21.8181818,12 C21.8181818,6.57756791 17.422432,2.18181818 12,2.18181818 C6.57756791,2.18181818 2.18181818,6.57756791 2.18181818,12 C2.18181818,17.422432 6.57756791,21.8181818 12,21.8181818 Z M13.0909091,5.45454545 L13.0909091,11.5481306 L16.0441165,14.501338 C16.470143,14.9273645 16.470143,15.61809 16.0441165,16.0441165 C15.61809,16.470143 14.9273645,16.470143 14.501338,16.0441165 L11.2286108,12.7713892 C11.0240256,12.5668041 10.9090909,12.2893271 10.9090909,12 L10.9090909,5.45454545 C10.9090909,4.852053 11.3975076,4.36363636 12,4.36363636 C12.6024924,4.36363636 13.0909091,4.852053 13.0909091,5.45454545 Z" id="path-1"></path>
    </defs>
    <g id="icon/24x24_clock_o" stroke="none" stroke-width="1" fill="none" fill-rule="evenodd">
        <mask id="mask-2" fill="white">
            <use xlink:href="#path-1"></use>
        </mask>
        <g id="24x24_clock_o" fill-rule="nonzero"></g>
        <g id="COLOR/JJ_4.black" mask="url(#mask-2)" fill="#0F0A0A">
            <rect id="Rectangle" x="0" y="0" width="24" height="24"></rect>
        </g>
    </g>
</svg>