<?xml version="1.0" encoding="UTF-8"?>
<svg width="24px" height="24px" viewBox="0 0 24 24" version="1.1" xmlns="http://www.w3.org/2000/svg" xmlns:xlink="http://www.w3.org/1999/xlink">
    <!-- Generator: Sketch 49.1 (51147) - http://www.bohemiancoding.com/sketch -->
    <title>icon/24x24_collection_o</title>
    <desc>Created with Sketch.</desc>
    <defs>
        <path d="M17,14 C17,15.65 15.65,17 14,17 L4,17 C2.35,17 1,15.65 1,14 L1,11 L1,4 C1,2.35 2.35,1 4,1 L14,1 C15.65,1 17,2.35 17,4 L17,11 L17,14 Z M3,14 C3,14.542 3.458,15 4,15 L14,15 C14.542,15 15,14.542 15,14 L15,13.815 C14.686,13.928 14.352,14 14,14 L4,14 C3.648,14 3.314,13.928 3,13.815 L3,14 Z M3,4 L3,11 C3,11.542 3.458,12 4,12 L14,12 C14.542,12 15,11.542 15,11 L15,4 C15,3.458 14.542,3 14,3 L4,3 C3.458,3 3,3.458 3,4 Z M21.5024,8.7441 C22.9314,9.5691 23.4254,11.4131 22.6004,12.8421 L19.1004,18.9041 L17.6004,21.5021 C16.7754,22.9311 14.9314,23.4251 13.5024,22.6001 L5.5344,18.0001 L9.5344,18.0001 L14.5024,20.8681 C14.9714,21.1391 15.5974,20.9721 15.8684,20.5021 L15.9604,20.3421 C15.6324,20.2821 15.3074,20.1781 15.0024,20.0021 L11.5344,18.0001 L14.0004,18.0001 C14.4164,18.0001 14.8094,17.9181 15.1874,17.8001 L16.0024,18.2701 C16.4714,18.5411 17.0974,18.3731 17.3684,17.9041 L20.8684,11.8421 C21.1394,11.3721 20.9714,10.7471 20.5024,10.4761 L18.0004,9.0311 L18.0004,6.7221 L21.5024,8.7441 Z M9,6 C9.552,6 10,6.448 10,7 C10,7.552 9.552,8 9,8 C8.448,8 8,7.552 8,7 C8,6.448 8.448,6 9,6 Z M8.492,10.631 C8.603,10.72 8.707,10.798 8.8,10.866 C8.856,10.907 8.898,10.936 8.921,10.951 C9.02,11.016 9.147,11.016 9.245,10.951 C9.269,10.936 9.31,10.907 9.367,10.866 C9.46,10.798 9.564,10.72 9.675,10.631 C9.993,10.378 10.311,10.092 10.607,9.779 C11.474,8.864 12,7.9 12,6.917 C12,5.306 10.694,4 9.083,4 C7.473,4 6.167,5.306 6.167,6.917 C6.167,7.9 6.692,8.864 7.559,9.779 C7.856,10.092 8.174,10.378 8.492,10.631 Z" id="path-1"></path>
    </defs>
    <g id="icon/24x24_collection_o" stroke="none" stroke-width="1" fill="none" fill-rule="evenodd">
        <mask id="mask-2" fill="white">
            <use xlink:href="#path-1"></use>
        </mask>
        <g id="24x24_collection_o" fill-rule="nonzero"></g>
        <g id="COLOR/JJ_4.black" mask="url(#mask-2)" fill="#0F0A0A">
            <rect id="Rectangle" x="0" y="0" width="24" height="24"></rect>
        </g>
    </g>
</svg>