<?xml version="1.0" encoding="UTF-8"?>
<svg width="24px" height="24px" viewBox="0 0 24 24" version="1.1" xmlns="http://www.w3.org/2000/svg" xmlns:xlink="http://www.w3.org/1999/xlink">
    <!-- Generator: Sketch 49.1 (51147) - http://www.bohemiancoding.com/sketch -->
    <title>icon/24x24_copy_o</title>
    <desc>Created with Sketch.</desc>
    <defs>
        <path d="M10.9090909,9.81818182 C10.3065985,9.81818182 9.81818182,10.3065985 9.81818182,10.9090909 L9.81818182,20.7272727 C9.81818182,21.3297651 10.3065985,21.8181818 10.9090909,21.8181818 L20.7272727,21.8181818 C21.3297651,21.8181818 21.8181818,21.3297651 21.8181818,20.7272727 L21.8181818,10.9090909 C21.8181818,10.3065985 21.3297651,9.81818182 20.7272727,9.81818182 L10.9090909,9.81818182 Z M10.9090909,7.63636364 L20.7272727,7.63636364 C22.53475,7.63636364 24,9.10161355 24,10.9090909 L24,20.7272727 C24,22.53475 22.53475,24 20.7272727,24 L10.9090909,24 C9.10161355,24 7.63636364,22.53475 7.63636364,20.7272727 L7.63636364,10.9090909 C7.63636364,9.10161355 9.10161355,7.63636364 10.9090909,7.63636364 Z M4.36363636,14.1818182 C4.96612882,14.1818182 5.45454545,14.6702349 5.45454545,15.2727273 C5.45454545,15.8752197 4.96612882,16.3636364 4.36363636,16.3636364 L3.27272727,16.3636364 C1.46524991,16.3636364 0,14.8983864 0,13.0909091 L0,3.27272727 C0,1.46524991 1.46524991,0 3.27272727,0 L13.0909091,0 C14.8983864,0 16.3636364,1.46524991 16.3636364,3.27272727 L16.3636364,4.36363636 C16.3636364,4.96612882 15.8752197,5.45454545 15.2727273,5.45454545 C14.6702349,5.45454545 14.1818182,4.96612882 14.1818182,4.36363636 L14.1818182,3.27272727 C14.1818182,2.67023482 13.6934015,2.18181818 13.0909091,2.18181818 L3.27272727,2.18181818 C2.67023482,2.18181818 2.18181818,2.67023482 2.18181818,3.27272727 L2.18181818,13.0909091 C2.18181818,13.6934015 2.67023482,14.1818182 3.27272727,14.1818182 L4.36363636,14.1818182 Z" id="path-1"></path>
    </defs>
    <g id="icon/24x24_copy_o" stroke="none" stroke-width="1" fill="none" fill-rule="evenodd">
        <mask id="mask-2" fill="white">
            <use xlink:href="#path-1"></use>
        </mask>
        <g id="24x24_copy_o" fill-rule="nonzero"></g>
        <g id="COLOR/JJ_4.black" mask="url(#mask-2)" fill="#0F0A0A">
            <rect id="Rectangle" x="0" y="0" width="24" height="24"></rect>
        </g>
    </g>
</svg>