<?xml version="1.0" encoding="UTF-8"?>
<svg width="24px" height="24px" viewBox="0 0 24 24" version="1.1" xmlns="http://www.w3.org/2000/svg" xmlns:xlink="http://www.w3.org/1999/xlink">
    <!-- Generator: Sketch 49.1 (51147) - http://www.bohemiancoding.com/sketch -->
    <title>icon/24x24_dress_o</title>
    <desc>Created with Sketch.</desc>
    <defs>
        <path d="M5.38761003,22 L9.72061252,12 L14.2796152,12 L18.6126177,22 L5.38761003,22 Z M11.4916135,5.861 C11.6476136,5.954 11.8246137,6 11.9996138,6 C12.1706139,6 12.341614,5.957 12.4946141,5.869 L15.0176156,4.432 L15.8556161,5.27 L14.2796152,10 L9.72061252,10 L8.14461162,5.27 L9.01761212,4.397 L11.4916135,5.861 Z M20.948619,22.684 L16.0536162,11 L17.9486173,5.316 C18.0686173,4.957 17.9746173,4.561 17.7066171,4.293 L15.9996161,2.586 L15.9996161,1 C15.9996161,0.448 15.5526159,0 14.9996156,0 C14.4476153,0 13.999615,0.448 13.999615,1 L13.999615,2.71 L12.0096138,3.844 L10.0316127,2.673 L9.99961269,0.981 C9.98961268,0.43 9.53561242,0.002 8.9816121,0 C8.42861178,0.01 7.99061153,0.466 7.99961153,1.019 L8.02861155,2.557 L6.29261055,4.293 C6.02561039,4.561 5.93161034,4.957 6.05161041,5.316 L7.9466115,11 L3.05160868,22.684 C2.94960862,22.989 3.00060865,23.324 3.18860876,23.584 C3.37660887,23.846 3.67860904,24 3.99960922,24 L19.9996185,24 C20.3216186,24 20.6226188,23.846 20.8116189,23.584 C20.998619,23.324 21.0506191,22.989 20.948619,22.684 Z" id="path-1"></path>
    </defs>
    <g id="icon/24x24_dress_o" stroke="none" stroke-width="1" fill="none" fill-rule="evenodd">
        <mask id="mask-2" fill="white">
            <use xlink:href="#path-1"></use>
        </mask>
        <g id="24x24_dress_o" fill-rule="nonzero"></g>
        <g id="COLOR/JJ_4.black" mask="url(#mask-2)" fill="#0F0A0A">
            <rect id="Rectangle" x="0" y="0" width="24" height="24"></rect>
        </g>
    </g>
</svg>