<?xml version="1.0" encoding="UTF-8"?>
<svg width="24px" height="24px" viewBox="0 0 24 24" version="1.1" xmlns="http://www.w3.org/2000/svg" xmlns:xlink="http://www.w3.org/1999/xlink">
    <!-- Generator: Sketch 49.1 (51147) - http://www.bohemiancoding.com/sketch -->
    <title>icon/24x24_exclusive__o</title>
    <desc>Created with Sketch.</desc>
    <defs>
        <path d="M9.01496516,14.8075421 L8.26444368,20.2321377 L11.4855042,18.3768068 C11.8021866,18.1943977 12.1978134,18.1943977 12.5144958,18.3768068 L15.7358817,20.2323252 L14.9861004,14.8071303 C14.0634431,15.1637302 13.0555972,15.36 12,15.36 C10.9448091,15.36 9.93733283,15.1638813 9.01496516,14.8075421 Z M7.13949704,13.7805036 C5.23083455,12.3769044 4,10.1664411 4,7.68 C4,3.43845312 7.581722,0 12,0 C16.418278,0 20,3.43845312 20,7.68 C20,10.1659524 18.7696493,12.3760354 16.8616285,13.7796758 L17.9913131,21.953738 C18.1014481,22.7506421 17.2035539,23.3167898 16.4855042,22.9031932 L12,20.3195428 L7.51449576,22.9031932 C6.79638903,23.3168227 5.89844315,22.750554 6.0087057,21.9536018 L7.13949704,13.7805036 Z M15.3305913,12.4718097 C16.9401106,11.4387541 18,9.67820131 18,7.68 C18,4.49883984 15.3137085,1.92 12,1.92 C8.6862915,1.92 6,4.49883984 6,7.68 C6,10.8611602 8.6862915,13.44 12,13.44 C13.1638413,13.44 14.2502872,13.1218856 15.170137,12.5712895 C15.2198314,12.5335409 15.2734995,12.5001511 15.3305913,12.4718097 Z M9.513,7.68 C9.195,7.27776 9,6.7824 9,6.24 C9,4.91712 10.122,3.84 11.5,3.84 L14,3.84 C14.552,3.84 15,4.27008 15,4.8 C15,5.32992 14.552,5.76 14,5.76 L11.5,5.76 C11.229,5.76 11,5.97984 11,6.24 C11,6.50016 11.229,6.72 11.5,6.72 L14,6.72 C14.552,6.72 15,7.15008 15,7.68 C15,8.20992 14.552,8.64 14,8.64 L11.5,8.64 C11.229,8.64 11,8.85984 11,9.12 C11,9.38016 11.229,9.6 11.5,9.6 L14,9.6 C14.552,9.6 15,10.03008 15,10.56 C15,11.08992 14.552,11.52 14,11.52 L11.5,11.52 C10.122,11.52 9,10.44288 9,9.12 C9,8.5776 9.195,8.08224 9.513,7.68 Z" id="path-1"></path>
    </defs>
    <g id="icon/24x24_exclusive__o" stroke="none" stroke-width="1" fill="none" fill-rule="evenodd">
        <mask id="mask-2" fill="white">
            <use xlink:href="#path-1"></use>
        </mask>
        <g id="24x24_exclusive__o" fill-rule="nonzero"></g>
        <g id="COLOR/JJ_4.black" mask="url(#mask-2)" fill="#0F0A0A">
            <rect id="Rectangle" x="0" y="0" width="24" height="24"></rect>
        </g>
    </g>
</svg>