<?xml version="1.0" encoding="UTF-8"?>
<svg width="24px" height="24px" viewBox="0 0 24 24" version="1.1" xmlns="http://www.w3.org/2000/svg" xmlns:xlink="http://www.w3.org/1999/xlink">
    <!-- Generator: Sketch 49.1 (51147) - http://www.bohemiancoding.com/sketch -->
    <title>icon/24x24_film_o</title>
    <desc>Created with Sketch.</desc>
    <defs>
        <path d="M21.8181818,7.63636364 L18.5454545,7.63636364 L18.5454545,10.9090909 L21.8181818,10.9090909 L21.8181818,7.63636364 Z M21.8181818,5.45454545 L21.8181818,3.46909091 C21.8181818,2.75814982 21.2418502,2.18181818 20.5309091,2.18181818 L18.5454545,2.18181818 L18.5454545,5.45454545 L21.8181818,5.45454545 Z M21.8181818,16.3636364 L21.8181818,13.0909091 L18.5454545,13.0909091 L18.5454545,16.3636364 L21.8181818,16.3636364 Z M21.8181818,18.5454545 L18.5454545,18.5454545 L18.5454545,21.8181818 L20.5309091,21.8181818 C21.2418502,21.8181818 21.8181818,21.2418502 21.8181818,20.5309091 L21.8181818,18.5454545 Z M2.18181818,16.3636364 L5.45454545,16.3636364 L5.45454545,13.0909091 L2.18181818,13.0909091 L2.18181818,16.3636364 Z M2.18181818,18.5454545 L2.18181818,20.5309091 C2.18181818,21.2418502 2.75814982,21.8181818 3.46909091,21.8181818 L5.45454545,21.8181818 L5.45454545,18.5454545 L2.18181818,18.5454545 Z M2.18181818,7.63636364 L2.18181818,10.9090909 L5.45454545,10.9090909 L5.45454545,7.63636364 L2.18181818,7.63636364 Z M2.18181818,5.45454545 L5.45454545,5.45454545 L5.45454545,2.18181818 L3.46909091,2.18181818 C2.75814982,2.18181818 2.18181818,2.75814982 2.18181818,3.46909091 L2.18181818,5.45454545 Z M7.63636364,10.9090909 L16.3636364,10.9090909 L16.3636364,2.18181818 L7.63636364,2.18181818 L7.63636364,10.9090909 Z M7.63636364,13.0909091 L7.63636364,21.8181818 L16.3636364,21.8181818 L16.3636364,13.0909091 L7.63636364,13.0909091 Z M3.46909091,0 L20.5309091,0 C22.4468351,0 24,1.55316491 24,3.46909091 L24,20.5309091 C24,22.4468351 22.4468351,24 20.5309091,24 L3.46909091,24 C1.55316491,24 0,22.4468351 0,20.5309091 L0,3.46909091 C0,1.55316491 1.55316491,0 3.46909091,0 Z" id="path-1"></path>
    </defs>
    <g id="icon/24x24_film_o" stroke="none" stroke-width="1" fill="none" fill-rule="evenodd">
        <mask id="mask-2" fill="white">
            <use xlink:href="#path-1"></use>
        </mask>
        <g id="24x24_film_o" fill-rule="nonzero"></g>
        <g id="COLOR/JJ_4.black" mask="url(#mask-2)" fill="#0F0A0A">
            <rect id="Rectangle" x="0" y="0" width="24" height="24"></rect>
        </g>
    </g>
</svg>