<?xml version="1.0" encoding="UTF-8"?>
<svg width="24px" height="24px" viewBox="0 0 24 24" version="1.1" xmlns="http://www.w3.org/2000/svg" xmlns:xlink="http://www.w3.org/1999/xlink">
    <!-- Generator: Sketch 49.1 (51147) - http://www.bohemiancoding.com/sketch -->
    <title>icon/24x24_filter_o</title>
    <desc>Created with Sketch.</desc>
    <defs>
        <path d="M22.8,8.35714286 L13.032,8.35714286 C13.1304,7.96857143 13.2,7.56421429 13.2,7.14285714 C13.2,6.7215 13.1304,6.31714286 13.032,5.92857143 L22.8,5.92857143 C23.4627416,5.92857143 24,6.47222566 24,7.14285714 C24,7.81348862 23.4627416,8.35714286 22.8,8.35714286 Z M15.6,13.2142857 C17.588225,13.2142857 19.2,14.8452485 19.2,16.8571429 C19.2,18.8690372 17.588225,20.5 15.6,20.5 C13.611775,20.5 12,18.8690372 12,16.8571429 C12,14.8452485 13.611775,13.2142857 15.6,13.2142857 Z M15.6,18.0714286 C16.26,18.0714286 16.8,17.525 16.8,16.8571429 C16.8,16.1892857 16.26,15.6428571 15.6,15.6428571 C14.94,15.6428571 14.4,16.1892857 14.4,16.8571429 C14.4,17.525 14.94,18.0714286 15.6,18.0714286 Z M8.4,10.7857143 C6.4117749,10.7857143 4.8,9.15475159 4.8,7.14285714 C4.8,5.1309627 6.4117749,3.5 8.4,3.5 C10.388225,3.5 12,5.1309627 12,7.14285714 C12,9.15475159 10.388225,10.7857143 8.4,10.7857143 Z M8.4,5.92857143 C7.74,5.92857143 7.2,6.475 7.2,7.14285714 C7.2,7.81071429 7.74,8.35714286 8.4,8.35714286 C9.06,8.35714286 9.6,7.81071429 9.6,7.14285714 C9.6,6.475 9.06,5.92857143 8.4,5.92857143 Z M1.2,8.35714286 C0.5372583,8.35714286 0,7.81348862 0,7.14285714 C0,6.47222566 0.5372583,5.92857143 1.2,5.92857143 L3.768,5.92857143 C3.672,6.31714286 3.6,6.7215 3.6,7.14285714 C3.6,7.56421429 3.6696,7.96857143 3.768,8.35714286 L1.2,8.35714286 Z M1.2,15.6428571 L10.968,15.6428571 C10.8696,16.0314286 10.8,16.4357857 10.8,16.8571429 C10.8,17.2785 10.8696,17.6828571 10.968,18.0714286 L1.2,18.0714286 C0.5372583,18.0714286 0,17.5277743 0,16.8571429 C0,16.1865114 0.5372583,15.6428571 1.2,15.6428571 Z M22.8,15.6428571 C23.4627416,15.6428571 24,16.1865114 24,16.8571429 C24,17.5277743 23.4627416,18.0714286 22.8,18.0714286 L20.232,18.0714286 C20.3304,17.6828571 20.4,17.2785 20.4,16.8571429 C20.4,16.4357857 20.3304,16.0314286 20.232,15.6428571 L22.8,15.6428571 Z" id="path-1"></path>
    </defs>
    <g id="icon/24x24_filter_o" stroke="none" stroke-width="1" fill="none" fill-rule="evenodd">
        <mask id="mask-2" fill="white">
            <use xlink:href="#path-1"></use>
        </mask>
        <g id="24x24_filter_o" fill-rule="nonzero"></g>
        <g id="COLOR/JJ_4.black" mask="url(#mask-2)" fill="#0F0A0A">
            <rect id="Rectangle" x="0" y="0" width="24" height="24"></rect>
        </g>
    </g>
</svg>