<?xml version="1.0" encoding="UTF-8"?>
<svg width="24px" height="24px" viewBox="0 0 24 24" version="1.1" xmlns="http://www.w3.org/2000/svg" xmlns:xlink="http://www.w3.org/1999/xlink">
    <!-- Generator: Sketch 49.1 (51147) - http://www.bohemiancoding.com/sketch -->
    <title>icon/24x24_gift_box_o</title>
    <desc>Created with Sketch.</desc>
    <defs>
        <path d="M20.7275,20.8184 L12.9995,20.8184 L12.9995,15.0004 L21.8185,15.0004 L21.8185,19.7274 C21.8185,20.3304 21.3305,20.8184 20.7275,20.8184 Z M3.2725,20.8184 C2.6695,20.8184 2.1815,20.3304 2.1815,19.7274 L2.1815,15.0004 L10.8185,15.0004 L10.8185,20.8184 L3.2725,20.8184 Z M3.2725,7.7274 L10.8185,7.7274 L10.8185,13.0004 L2.1815,13.0004 L2.1815,8.8184 C2.1815,8.2154 2.6695,7.7274 3.2725,7.7274 Z M21.8185,8.8184 L21.8185,13.0004 L12.9995,13.0004 L12.9995,7.7274 L20.7275,7.7274 C21.3305,7.7274 21.8185,8.2154 21.8185,8.8184 Z M9.9995,3.0004 C10.5515,3.0004 10.9995,3.4484 10.9995,4.0004 C10.9995,4.5514 10.5515,5.0004 9.9995,5.0004 C9.4485,5.0004 8.9995,4.5514 8.9995,4.0004 C8.9995,3.4484 9.4485,3.0004 9.9995,3.0004 Z M13.9995,3.0004 C14.5515,3.0004 14.9995,3.4484 14.9995,4.0004 C14.9995,4.5514 14.5515,5.0004 13.9995,5.0004 C13.4485,5.0004 12.9995,4.5514 12.9995,4.0004 C12.9995,3.4484 13.4485,3.0004 13.9995,3.0004 Z M20.7275,5.5454 L16.5595,5.5454 C16.8325,5.0924 16.9995,4.5674 16.9995,4.0004 C16.9995,2.3424 15.6575,1.0004 13.9995,1.0004 C13.2285,1.0004 12.5315,1.2994 11.9995,1.7784 C11.4685,1.2994 10.7715,1.0004 9.9995,1.0004 C8.3425,1.0004 6.9995,2.3424 6.9995,4.0004 C6.9995,4.5674 7.1665,5.0924 7.4405,5.5454 L3.2725,5.5454 C1.4645,5.5454 -0.0005,7.0104 -0.0005,8.8184 L-0.0005,19.7274 C-0.0005,21.5354 1.4645,23.0004 3.2725,23.0004 L20.7275,23.0004 C22.5355,23.0004 23.9995,21.5354 23.9995,19.7274 L23.9995,8.8184 C23.9995,7.0104 22.5355,5.5454 20.7275,5.5454 Z" id="path-1"></path>
    </defs>
    <g id="icon/24x24_gift_box_o" stroke="none" stroke-width="1" fill="none" fill-rule="evenodd">
        <mask id="mask-2" fill="white">
            <use xlink:href="#path-1"></use>
        </mask>
        <g id="24x24_gift_box_o" fill-rule="nonzero"></g>
        <g id="COLOR/JJ_4.black" mask="url(#mask-2)" fill="#0F0A0A">
            <rect id="Rectangle" x="0" y="0" width="24" height="24"></rect>
        </g>
    </g>
</svg>