<?xml version="1.0" encoding="UTF-8"?>
<svg width="24px" height="24px" viewBox="0 0 24 24" version="1.1" xmlns="http://www.w3.org/2000/svg" xmlns:xlink="http://www.w3.org/1999/xlink">
    <!-- Generator: Sketch 49.1 (51147) - http://www.bohemiancoding.com/sketch -->
    <title>icon/24x24_groceries_o</title>
    <desc>Created with Sketch.</desc>
    <defs>
        <path d="M16.9062,12.6797 L15.0082,11.2557 C14.9812,8.6477 15.1212,6.0137 15.4782,4.3327 C15.5952,3.7857 16.0502,1.9997 17.0002,1.9997 C17.5612,1.9997 17.9582,2.6607 18.2242,3.3617 L16.2932,5.2927 C15.9022,5.6837 15.9022,6.3167 16.2932,6.7067 C16.4882,6.9027 16.7442,6.9997 17.0002,6.9997 C17.2562,6.9997 17.5112,6.9027 17.7072,6.7067 L18.7512,5.6627 C18.7932,5.9927 18.8292,6.3497 18.8602,6.7257 L16.2932,9.2927 C15.9022,9.6837 15.9022,10.3167 16.2932,10.7067 C16.4882,10.9027 16.7442,10.9997 17.0002,10.9997 C17.2562,10.9997 17.5112,10.9027 17.7072,10.7067 L18.9902,9.4237 C18.9972,9.8057 19.0012,10.1927 19.0012,10.5847 L16.9062,12.6797 Z M19.0002,18.7347 L19.0002,21.9997 L5.0002,21.9997 L5.0002,19.9997 L10.0002,19.9997 C10.5522,19.9997 11.0002,19.5527 11.0002,18.9997 C11.0002,18.4477 10.5522,17.9997 10.0002,17.9997 L9.0002,17.9997 L5.0002,17.9997 L5.0002,16.4597 L5.0002,14.3027 L5.3972,13.7067 L6.1552,12.5697 L8.2932,14.7067 C8.6452,15.0597 9.2012,15.0997 9.6002,14.7997 L12.9722,12.2707 L13.0002,12.2497 L13.0262,12.2697 L14.7812,13.5847 L15.0882,13.8167 L16.4002,14.7997 C16.7982,15.0997 17.3552,15.0597 17.7072,14.7067 L18.9262,13.4887 L19.0002,13.4137 L19.0002,18.7347 Z M9.0002,7.9997 C10.5302,7.9997 11.8462,8.8727 12.5182,10.1377 C12.4792,10.1597 12.4362,10.1727 12.4002,10.2007 L9.0942,12.6797 L6.7072,10.2927 C6.4952,10.0807 6.2022,9.9797 5.9012,10.0047 C5.7462,10.0207 5.6012,10.0747 5.4712,10.1557 C6.1412,8.8807 7.4632,7.9997 9.0002,7.9997 Z M20.9962,10.9737 C21.0052,9.7287 20.9762,8.5107 20.9092,7.4027 C20.8912,7.0917 20.8692,6.7907 20.8442,6.4997 C20.7572,5.4697 20.6352,4.5687 20.4732,3.8927 C19.7052,0.6757 18.1602,-0.0003 17.0002,-0.0003 C16.0132,-0.0003 14.2482,0.5087 13.5222,3.9167 C13.3082,4.9217 13.1682,6.2127 13.0872,7.6197 C12.2422,6.8307 11.1722,6.2847 9.9832,6.0877 C9.9852,6.0577 10.0002,6.0317 10.0002,5.9997 C10.0002,4.8977 9.1032,3.9997 8.0002,3.9997 C7.4482,3.9997 7.0002,4.4477 7.0002,4.9997 C7.0002,5.5527 7.4482,5.9997 8.0002,5.9997 C8.0002,6.0317 8.0152,6.0577 8.0182,6.0877 C5.1762,6.5587 3.0002,9.0267 3.0002,11.9997 C3.0002,12.4927 3.0662,12.9697 3.1792,13.4287 L3.1682,13.4457 C3.0582,13.6097 3.0002,13.8027 3.0002,13.9997 L3.0002,18.9997 L3.0002,22.9997 C3.0002,23.5527 3.4482,23.9997 4.0002,23.9997 L20.0002,23.9997 C20.5522,23.9997 21.0002,23.5527 21.0002,22.9997 L20.9962,10.9737 Z" id="path-1"></path>
    </defs>
    <g id="icon/24x24_groceries_o" stroke="none" stroke-width="1" fill="none" fill-rule="evenodd">
        <mask id="mask-2" fill="white">
            <use xlink:href="#path-1"></use>
        </mask>
        <g id="24x24_groceries_o" fill-rule="nonzero"></g>
        <g id="COLOR/JJ_4.black" mask="url(#mask-2)" fill="#0F0A0A">
            <rect id="Rectangle" x="0" y="0" width="24" height="24"></rect>
        </g>
    </g>
</svg>