<?xml version="1.0" encoding="UTF-8"?>
<svg width="24px" height="24px" viewBox="0 0 24 24" version="1.1" xmlns="http://www.w3.org/2000/svg" xmlns:xlink="http://www.w3.org/1999/xlink">
    <!-- Generator: Sketch 49.1 (51147) - http://www.bohemiancoding.com/sketch -->
    <title>icon/24x24_hot_pot_o</title>
    <desc>Created with Sketch.</desc>
    <defs>
        <path d="M24,11.9997273 C24,15.123071 21.7003636,17.1805723 18.1090909,17.4096684 L19.3690909,21.8181322 L20.7272727,21.8181322 C21.3305455,21.8181322 21.8181818,22.3068706 21.8181818,22.9090661 C21.8181818,23.5123526 21.3305455,24 20.7272727,24 L18.5476364,24 L18.5410909,24 L15.2727273,24 L13.0909091,24 L10.9090909,24 L8.72727273,24 L3.27272727,24 C2.66945455,24 2.18181818,23.5123526 2.18181818,22.9090661 C2.18181818,22.3068706 2.66945455,21.8181322 3.27272727,21.8181322 L4.63090909,21.8181322 L5.89090909,17.4096684 C2.29963636,17.1805723 0,15.123071 0,11.9997273 C0,11.3975318 0.487636364,10.9087934 1.09090909,10.9087934 L7.74763636,10.9087934 L8.76872727,7.33707584 C8.90290909,6.86797427 9.33163636,6.54505784 9.81818182,6.54505784 L14.1818182,6.54505784 C14.6683636,6.54505784 15.0970909,6.86797427 15.2312727,7.33707584 L16.2512727,10.9087934 L22.9090909,10.9087934 C23.5123636,10.9087934 24,11.3975318 24,11.9997273 Z M17.4981818,15.2725289 C18.6436364,15.2670743 20.9978182,15.0085229 21.6458182,13.0906612 L16.8752727,13.0906612 L14.6061818,13.0906612 L9.39381818,13.0906612 L7.12472727,13.0906612 L2.35418182,13.0906612 C3.00218182,15.0085229 5.35636364,15.2670743 6.50181818,15.2725289 C6.516,15.2725289 6.53127273,15.2725289 6.54545455,15.2725289 L8.77090909,15.2725289 L15.2290909,15.2725289 L17.4545455,15.2725289 C17.4687273,15.2725289 17.484,15.2725289 17.4981818,15.2725289 Z M15.2727273,21.8181322 L17.0989091,21.8181322 L15.852,17.4543967 L8.148,17.4543967 L6.90109091,21.8181322 L8.72727273,21.8181322 L8.72727273,20.7271983 C8.72727273,19.5271711 9.70909091,18.5453306 10.9090909,18.5453306 L13.0909091,18.5453306 C14.2909091,18.5453306 15.2727273,19.5271711 15.2727273,20.7271983 L15.2727273,21.8181322 Z M10.9090909,21.8181322 L13.0909091,21.8181322 L13.0909091,20.7271983 L10.9090909,20.7271983 L10.9090909,21.8181322 Z M10.6407273,8.72692561 L10.0178182,10.9087934 L13.9821818,10.9087934 L13.3592727,8.72692561 L10.6407273,8.72692561 Z M13.0909091,0 C13.6909091,0 14.1818182,0.490920248 14.1818182,1.09093388 C14.1818182,1.69094752 13.6909091,2.18186777 13.0909091,2.18186777 L8.72727273,2.18186777 C8.12727273,2.18186777 7.63636364,1.69094752 7.63636364,1.09093388 C7.63636364,0.490920248 8.12727273,0 8.72727273,0 L13.0909091,0 Z M6.54545455,4.36373554 C7.14545455,4.36373554 7.63636364,4.85465579 7.63636364,5.45466942 C7.63636364,6.05468306 7.14545455,6.54560331 6.54545455,6.54560331 L4.36363636,6.54560331 C3.76363636,6.54560331 3.27272727,6.05468306 3.27272727,5.45466942 C3.27272727,4.85465579 3.76363636,4.36373554 4.36363636,4.36373554 L6.54545455,4.36373554 Z M18.5454545,2.18186777 C19.1454545,2.18186777 19.6363636,2.67278802 19.6363636,3.27280165 C19.6363636,3.87281529 19.1454545,4.36373554 18.5454545,4.36373554 L16.3636364,4.36373554 C15.7636364,4.36373554 15.2727273,3.87281529 15.2727273,3.27280165 C15.2727273,2.67278802 15.7636364,2.18186777 16.3636364,2.18186777 L18.5454545,2.18186777 Z" id="path-1"></path>
    </defs>
    <g id="icon/24x24_hot_pot_o" stroke="none" stroke-width="1" fill="none" fill-rule="evenodd">
        <mask id="mask-2" fill="white">
            <use xlink:href="#path-1"></use>
        </mask>
        <g id="24x24_hot_pot_o" fill-rule="nonzero"></g>
        <g id="COLOR/JJ_4.black" mask="url(#mask-2)" fill="#0F0A0A">
            <rect id="Rectangle" x="0" y="0" width="24" height="24"></rect>
        </g>
    </g>
</svg>