<?xml version="1.0" encoding="UTF-8"?>
<svg width="24px" height="24px" viewBox="0 0 24 24" version="1.1" xmlns="http://www.w3.org/2000/svg" xmlns:xlink="http://www.w3.org/1999/xlink">
    <!-- Generator: Sketch 49.1 (51147) - http://www.bohemiancoding.com/sketch -->
    <title>icon/24x24_info_o</title>
    <desc>Created with Sketch.</desc>
    <defs>
        <path d="M12,24 C5.372583,24 0,18.6274169 0,12 C0,5.372583 5.372583,0 12,0 C18.6274169,0 24,5.372583 24,12 C24,18.6274169 18.6274169,24 12,24 Z M12,21.8181818 C17.422432,21.8181818 21.8181818,17.422432 21.8181818,12 C21.8181818,6.57756791 17.422432,2.18181818 12,2.18181818 C6.57756791,2.18181818 2.18181818,6.57756791 2.18181818,12 C2.18181818,17.422432 6.57756791,21.8181818 12,21.8181818 Z M13.0909091,16.3636364 C13.0909091,16.9661288 12.6024924,17.4545455 12,17.4545455 C11.3975076,17.4545455 10.9090909,16.9661288 10.9090909,16.3636364 L10.9090909,12 C10.9090909,11.3975076 11.3975076,10.9090909 12,10.9090909 C12.6024924,10.9090909 13.0909091,11.3975076 13.0909091,12 L13.0909091,16.3636364 Z M11.2286108,9.49866194 C10.8025843,9.07263544 10.8025843,8.38191001 11.2286108,7.95588351 C11.6546373,7.52985701 12.3453627,7.52985701 12.7713892,7.95588351 C13.1974157,8.38191001 13.1974157,9.07263544 12.7713892,9.49866194 C12.3453627,9.92468847 11.6546373,9.92468847 11.2286108,9.49866194 Z" id="path-1"></path>
    </defs>
    <g id="icon/24x24_info_o" stroke="none" stroke-width="1" fill="none" fill-rule="evenodd">
        <mask id="mask-2" fill="white">
            <use xlink:href="#path-1"></use>
        </mask>
        <g id="24x24_info_o" fill-rule="nonzero"></g>
        <g id="COLOR/JJ_4.black" mask="url(#mask-2)" fill="#0F0A0A">
            <rect id="Rectangle" x="0" y="0" width="24" height="24"></rect>
        </g>
    </g>
</svg>