<?xml version="1.0" encoding="UTF-8"?>
<svg width="24px" height="24px" viewBox="0 0 24 24" version="1.1" xmlns="http://www.w3.org/2000/svg" xmlns:xlink="http://www.w3.org/1999/xlink">
    <!-- Generator: Sketch 49.1 (51147) - http://www.bohemiancoding.com/sketch -->
    <title>icon/24x24_link_o</title>
    <desc>Created with Sketch.</desc>
    <defs>
        <path d="M8.94461996,13.7443403 C8.58373988,13.2618854 8.68229573,12.5782273 9.16475064,12.2173473 C9.64720553,11.8564671 10.3308636,11.955023 10.6917436,12.4374779 C11.4501048,13.4513191 12.6114184,14.0857983 13.8742744,14.1762416 C15.1371305,14.2666848 16.3770084,13.8041741 17.2722471,12.9086108 L20.5316856,9.64940532 C22.1853825,7.93720654 22.1617323,5.21558084 20.4785303,3.5323788 C18.7953283,1.84917677 16.0737025,1.82552659 14.3727733,3.46818033 L12.4964097,5.33363487 C12.069143,5.75841752 11.3784205,5.75640374 10.9536379,5.329137 C10.5288552,4.90187026 10.530869,4.21114776 10.9581358,3.78636513 L12.8457689,1.90986741 C15.4140671,-0.57067796 19.4965057,-0.535202672 22.0213088,1.98960037 C24.5461117,4.51440341 24.5815871,8.59684197 22.0877529,11.178662 L18.8151655,14.4512494 C17.472517,15.7943846 15.6127003,16.4881507 13.7184161,16.3524857 C11.824132,16.2168208 10.0821616,15.2651019 8.94461996,13.7443403 Z M15.05538,10.2556597 C15.4162601,10.7381146 15.3177043,11.4217727 14.8352494,11.7826527 C14.3527945,12.1435329 13.6691364,12.044977 13.3082564,11.5625221 C12.5498952,10.5486809 11.3885816,9.91420167 10.1257256,9.82375844 C8.86286947,9.73331518 7.62299162,10.1958259 6.72775285,11.0913892 L3.46831441,14.3505947 C1.81461749,16.0627934 1.83826768,18.7844192 3.52146971,20.4676212 C5.20467175,22.1508232 7.92629745,22.1744734 9.62497442,20.5340653 L11.4904289,18.6686108 C11.9164555,18.2425843 12.6071809,18.2425843 13.0332074,18.6686108 C13.4592339,19.0946373 13.4592339,19.7853627 13.0332074,20.2113892 L11.1542311,22.0901326 C8.58593288,24.570678 4.50349432,24.5352026 1.97869128,22.0103997 C-0.546111763,19.4855966 -0.581587051,15.403158 1.91224715,12.821338 L5.18483459,9.54875064 C6.527483,8.20561535 8.38729978,7.51184936 10.2815839,7.64751427 C12.175868,7.78317917 13.9178384,8.73489808 15.05538,10.2556597 Z" id="path-1"></path>
    </defs>
    <g id="icon/24x24_link_o" stroke="none" stroke-width="1" fill="none" fill-rule="evenodd">
        <mask id="mask-2" fill="white">
            <use xlink:href="#path-1"></use>
        </mask>
        <g id="24x24_link_o" fill-rule="nonzero"></g>
        <g id="COLOR/JJ_4.black" mask="url(#mask-2)" fill="#0F0A0A">
            <rect id="Rectangle" x="0" y="0" width="24" height="24"></rect>
        </g>
    </g>
</svg>