<?xml version="1.0" encoding="UTF-8"?>
<svg width="24px" height="24px" viewBox="0 0 24 24" version="1.1" xmlns="http://www.w3.org/2000/svg" xmlns:xlink="http://www.w3.org/1999/xlink">
    <!-- Generator: Sketch 49.1 (51147) - http://www.bohemiancoding.com/sketch -->
    <title>icon/24x24_list_view_o</title>
    <desc>Created with Sketch.</desc>
    <defs>
        <path d="M1.33333333,5.21428571 C0.596953667,5.21428571 0,4.60667216 0,3.85714286 C0,3.10761355 0.596953667,2.5 1.33333333,2.5 C2.069713,2.5 2.66666667,3.10761355 2.66666667,3.85714286 C2.66666667,4.60667216 2.069713,5.21428571 1.33333333,5.21428571 Z M6.66666667,2.5 L22.6666667,2.5 C23.4030463,2.5 24,3.10761355 24,3.85714286 C24,4.60667216 23.4030463,5.21428571 22.6666667,5.21428571 L6.66666667,5.21428571 C5.930287,5.21428571 5.33333333,4.60667216 5.33333333,3.85714286 C5.33333333,3.10761355 5.930287,2.5 6.66666667,2.5 Z M6.66666667,10.6428571 L17.3333333,10.6428571 C18.0697129,10.6428571 18.6666667,11.2504708 18.6666667,12 C18.6666667,12.7495292 18.0697129,13.3571429 17.3333333,13.3571429 L6.66666667,13.3571429 C5.930287,13.3571429 5.33333333,12.7495292 5.33333333,12 C5.33333333,11.2504708 5.930287,10.6428571 6.66666667,10.6428571 Z M6.66666667,18.7857143 L22.6666667,18.7857143 C23.4030463,18.7857143 24,19.3933279 24,20.1428571 C24,20.8923864 23.4030463,21.5 22.6666667,21.5 L6.66666667,21.5 C5.930287,21.5 5.33333333,20.8923864 5.33333333,20.1428571 C5.33333333,19.3933279 5.930287,18.7857143 6.66666667,18.7857143 Z M1.33333333,13.3571429 C0.596953667,13.3571429 0,12.7495292 0,12 C0,11.2504708 0.596953667,10.6428571 1.33333333,10.6428571 C2.069713,10.6428571 2.66666667,11.2504708 2.66666667,12 C2.66666667,12.7495292 2.069713,13.3571429 1.33333333,13.3571429 Z M1.33333333,21.5 C0.596953667,21.5 0,20.8923864 0,20.1428571 C0,19.3933279 0.596953667,18.7857143 1.33333333,18.7857143 C2.069713,18.7857143 2.66666667,19.3933279 2.66666667,20.1428571 C2.66666667,20.8923864 2.069713,21.5 1.33333333,21.5 Z" id="path-1"></path>
    </defs>
    <g id="icon/24x24_list_view_o" stroke="none" stroke-width="1" fill="none" fill-rule="evenodd">
        <mask id="mask-2" fill="white">
            <use xlink:href="#path-1"></use>
        </mask>
        <g id="24x24_list_view_o" fill-rule="nonzero"></g>
        <g id="COLOR/JJ_4.black" mask="url(#mask-2)" fill="#0F0A0A">
            <rect id="Rectangle" x="0" y="0" width="24" height="24"></rect>
        </g>
    </g>
</svg>