<?xml version="1.0" encoding="UTF-8"?>
<svg width="24px" height="24px" viewBox="0 0 24 24" version="1.1" xmlns="http://www.w3.org/2000/svg" xmlns:xlink="http://www.w3.org/1999/xlink">
    <!-- Generator: Sketch 49.1 (51147) - http://www.bohemiancoding.com/sketch -->
    <title>icon/24x24_log_out_o</title>
    <desc>Created with Sketch.</desc>
    <defs>
        <path d="M19.244365,13.0909091 L8.7,13.0909091 C8.09248678,13.0909091 7.6,12.6024924 7.6,12 C7.6,11.3975076 8.09248678,10.9090909 8.7,10.9090909 L19.244365,10.9090909 L16.7221825,8.40775285 C16.2926058,7.98172635 16.2926058,7.29100092 16.7221825,6.86497442 C17.1517593,6.43894792 17.8482408,6.43894792 18.2778175,6.86497442 L22.6778175,11.2286108 C23.1073942,11.6546373 23.1073942,12.3453627 22.6778175,12.7713892 L18.2778175,17.1350256 C17.8482408,17.5610521 17.1517593,17.5610521 16.7221825,17.1350256 C16.2926058,16.7089991 16.2926058,16.0182736 16.7221825,15.5922471 L19.244365,13.0909091 Z M9.8,21.8181818 C10.4075132,21.8181818 10.9,22.3065985 10.9,22.9090909 C10.9,23.5115833 10.4075132,24 9.8,24 L4.3,24 C2.47746033,24 1,22.53475 1,20.7272727 L1,3.27272727 C1,1.46524991 2.47746033,0 4.3,0 L9.8,0 C10.4075132,0 10.9,0.488416636 10.9,1.09090909 C10.9,1.69340155 10.4075132,2.18181818 9.8,2.18181818 L4.3,2.18181818 C3.69248677,2.18181818 3.2,2.67023482 3.2,3.27272727 L3.2,20.7272727 C3.2,21.3297651 3.69248677,21.8181818 4.3,21.8181818 L9.8,21.8181818 Z" id="path-1"></path>
    </defs>
    <g id="icon/24x24_log_out_o" stroke="none" stroke-width="1" fill="none" fill-rule="evenodd">
        <mask id="mask-2" fill="white">
            <use xlink:href="#path-1"></use>
        </mask>
        <g id="24x24_log_out_o" fill-rule="nonzero"></g>
        <g id="COLOR/JJ_4.black" mask="url(#mask-2)" fill="#0F0A0A">
            <rect id="Rectangle" x="0" y="0" width="24" height="24"></rect>
        </g>
    </g>
</svg>