<?xml version="1.0" encoding="UTF-8"?>
<svg width="24px" height="24px" viewBox="0 0 24 24" version="1.1" xmlns="http://www.w3.org/2000/svg" xmlns:xlink="http://www.w3.org/1999/xlink">
    <!-- Generator: Sketch 49.1 (51147) - http://www.bohemiancoding.com/sketch -->
    <title>icon/24x24_log_in_o</title>
    <desc>Created with Sketch.</desc>
    <defs>
        <path d="M12.644365,13.0909091 L2.1,13.0909091 C1.49248678,13.0909091 1,12.6024924 1,12 C1,11.3975076 1.49248678,10.9090909 2.1,10.9090909 L12.644365,10.9090909 L10.1221825,8.40775285 C9.69260582,7.98172635 9.69260582,7.29100092 10.1221825,6.86497442 C10.5517593,6.43894792 11.2482408,6.43894792 11.6778175,6.86497442 L16.0778175,11.2286108 C16.5073942,11.6546373 16.5073942,12.3453627 16.0778175,12.7713892 L11.6778175,17.1350256 C11.2482408,17.5610521 10.5517593,17.5610521 10.1221825,17.1350256 C9.69260582,16.7089991 9.69260582,16.0182736 10.1221825,15.5922471 L12.644365,13.0909091 Z M14.2,24 C13.5924868,24 13.1,23.5115833 13.1,22.9090909 C13.1,22.3065985 13.5924868,21.8181818 14.2,21.8181818 L19.7,21.8181818 C20.3075132,21.8181818 20.8,21.3297651 20.8,20.7272727 L20.8,3.27272727 C20.8,2.67023482 20.3075132,2.18181818 19.7,2.18181818 L14.2,2.18181818 C13.5924868,2.18181818 13.1,1.69340155 13.1,1.09090909 C13.1,0.488416636 13.5924868,0 14.2,0 L19.7,0 C21.5225396,0 23,1.46524991 23,3.27272727 L23,20.7272727 C23,22.53475 21.5225396,24 19.7,24 L14.2,24 Z" id="path-1"></path>
    </defs>
    <g id="icon/24x24_log_in_o" stroke="none" stroke-width="1" fill="none" fill-rule="evenodd">
        <mask id="mask-2" fill="white">
            <use xlink:href="#path-1"></use>
        </mask>
        <g id="24x24_log_in_o" fill-rule="nonzero"></g>
        <g id="COLOR/JJ_4.black" mask="url(#mask-2)" fill="#0F0A0A">
            <rect id="Rectangle" x="0" y="0" width="24" height="24"></rect>
        </g>
    </g>
</svg>