<?xml version="1.0" encoding="UTF-8"?>
<svg width="24px" height="24px" viewBox="0 0 24 24" version="1.1" xmlns="http://www.w3.org/2000/svg" xmlns:xlink="http://www.w3.org/1999/xlink">
    <!-- Generator: Sketch 49.1 (51147) - http://www.bohemiancoding.com/sketch -->
    <title>icon/24x24_mail_o</title>
    <desc>Created with Sketch.</desc>
    <defs>
        <path d="M24.0001865,5.33105473 C24.0001872,5.33160899 24.0001874,5.33216322 24.0001873,5.33271744 C24.0001873,5.33292273 24.0001873,5.33312803 24.0001873,5.33333333 L24.0001873,18.6666667 C24.0001873,20.5025386 22.5299411,22 20.7274345,22 L3.27275282,22 C1.47024629,22 0,20.5025386 0,18.6666667 L0,5.33333333 C0,5.33312803 2.18181819e-08,5.33292273 5.45454545e-08,5.33271744 C-1.17818182e-07,5.33216322 1.2e-07,5.33160898 7.52727273e-07,5.33105472 C0.00121669091,3.49622249 1.47099208,2 3.27275282,2 L20.7274345,2 C22.5291952,2 23.9989706,3.4962225 24.0001865,5.33105473 Z M21.7020093,4.83772067 C21.5215945,4.47435913 21.1505968,4.22222222 20.7273664,4.22222222 L3.27282094,4.22222222 C2.84959051,4.22222222 2.47859281,4.47435913 2.29817808,4.83772067 L12.0000937,11.7548271 L21.7020093,4.83772067 Z M21.8182755,7.46739507 L12.6256889,14.0213688 C12.250067,14.2891733 11.7501204,14.2891733 11.3744984,14.0213688 L2.18191185,7.46739507 L2.18191185,18.6666667 C2.18191185,19.2752392 2.67531339,19.7777778 3.27282094,19.7777778 L20.7273664,19.7777778 C21.3248739,19.7777778 21.8182755,19.2752392 21.8182755,18.6666667 L21.8182755,7.46739507 Z" id="path-1"></path>
    </defs>
    <g id="icon/24x24_mail_o" stroke="none" stroke-width="1" fill="none" fill-rule="evenodd">
        <mask id="mask-2" fill="white">
            <use xlink:href="#path-1"></use>
        </mask>
        <g id="24x24_mail_o" fill-rule="nonzero"></g>
        <g id="COLOR/JJ_4.black" mask="url(#mask-2)" fill="#0F0A0A">
            <rect id="Rectangle" x="0" y="0" width="24" height="24"></rect>
        </g>
    </g>
</svg>