<?xml version="1.0" encoding="UTF-8"?>
<svg width="24px" height="24px" viewBox="0 0 24 24" version="1.1" xmlns="http://www.w3.org/2000/svg" xmlns:xlink="http://www.w3.org/1999/xlink">
    <!-- Generator: Sketch 49.1 (51147) - http://www.bohemiancoding.com/sketch -->
    <title>icon/24x24_more_horizontal_o</title>
    <desc>Created with Sketch.</desc>
    <defs>
        <path d="M12,15.5 C10.1925227,15.5 8.72727273,13.9329966 8.72727273,12 C8.72727273,10.0670034 10.1925227,8.5 12,8.5 C13.8074773,8.5 15.2727273,10.0670034 15.2727273,12 C15.2727273,13.9329966 13.8074773,15.5 12,15.5 Z M20.7272727,15.5 C18.9197954,15.5 17.4545455,13.9329966 17.4545455,12 C17.4545455,10.0670034 18.9197954,8.5 20.7272727,8.5 C22.53475,8.5 24,10.0670034 24,12 C24,13.9329966 22.53475,15.5 20.7272727,15.5 Z M3.27272727,15.5 C1.46524991,15.5 0,13.9329966 0,12 C0,10.0670034 1.46524991,8.5 3.27272727,8.5 C5.08020464,8.5 6.54545455,10.0670034 6.54545455,12 C6.54545455,13.9329966 5.08020464,15.5 3.27272727,15.5 Z M3.27272727,13.1666667 C3.87521973,13.1666667 4.36363636,12.6443321 4.36363636,12 C4.36363636,11.3556678 3.87521973,10.8333333 3.27272727,10.8333333 C2.67023482,10.8333333 2.18181818,11.3556678 2.18181818,12 C2.18181818,12.6443321 2.67023482,13.1666667 3.27272727,13.1666667 Z M20.7272727,13.1666667 C21.3297651,13.1666667 21.8181818,12.6443321 21.8181818,12 C21.8181818,11.3556678 21.3297651,10.8333333 20.7272727,10.8333333 C20.1247803,10.8333333 19.6363636,11.3556678 19.6363636,12 C19.6363636,12.6443321 20.1247803,13.1666667 20.7272727,13.1666667 Z M12,13.1666667 C12.6024924,13.1666667 13.0909091,12.6443321 13.0909091,12 C13.0909091,11.3556678 12.6024924,10.8333333 12,10.8333333 C11.3975076,10.8333333 10.9090909,11.3556678 10.9090909,12 C10.9090909,12.6443321 11.3975076,13.1666667 12,13.1666667 Z" id="path-1"></path>
    </defs>
    <g id="icon/24x24_more_horizontal_o" stroke="none" stroke-width="1" fill="none" fill-rule="evenodd">
        <mask id="mask-2" fill="white">
            <use xlink:href="#path-1"></use>
        </mask>
        <g id="24x24_more_horizontal_o" fill-rule="nonzero"></g>
        <g id="COLOR/JJ_4.black" mask="url(#mask-2)" fill="#0F0A0A">
            <rect id="Rectangle" x="0" y="0" width="24" height="24"></rect>
        </g>
    </g>
</svg>