<?xml version="1.0" encoding="UTF-8"?>
<svg width="24px" height="24px" viewBox="0 0 24 24" version="1.1" xmlns="http://www.w3.org/2000/svg" xmlns:xlink="http://www.w3.org/1999/xlink">
    <!-- Generator: Sketch 49.1 (51147) - http://www.bohemiancoding.com/sketch -->
    <title>icon/24x24_near_by_o</title>
    <desc>Created with Sketch.</desc>
    <defs>
        <path d="M22.504,0.128064 C23.171,-0.237696 24,0.225024 24,0.961344 L24,4.801344 C24,5.331264 23.553,5.761344 23,5.761344 C22.447,5.761344 22,5.331264 22,4.801344 L22,2.615424 L17,5.358144 L17,9.601344 C17,10.131264 16.553,10.561344 16,10.561344 C15.447,10.561344 15,10.131264 15,9.601344 L15,5.394624 L9,2.514624 L9,15.728064 L10.484,16.438464 L10.482,16.440384 C10.966,16.696704 11.142,17.279424 10.876,17.744064 C10.609,18.208704 10.002,18.378624 9.518,18.122304 L9.516,18.123264 L8.031,17.409984 L1.496,20.994624 C0.829,21.360384 0,20.898624 0,20.161344 L0,4.801344 C0,4.456704 0.192,4.138944 0.504,3.968064 L7.488,0.136704 C7.639,0.050304 7.813,0.001344 8,0.001344 C8.168,0.001344 8.326,0.041664 8.465,0.111744 L15.969,3.712704 L22.504,0.128064 Z M7,15.764544 L7,2.615424 L2,5.358144 L2,18.506304 L7,15.764544 Z M15.4873,21.114816 C15.7623,21.114816 15.9863,21.331776 15.9863,21.598656 L15.9863,22.544256 C15.9863,22.811136 15.7693,23.026176 15.4953,23.028096 C15.0713,23.030976 14.4643,23.041536 13.8493,23.041536 C13.7373,23.041536 13.6243,23.041536 13.5113,23.040576 C13.2373,23.038656 13.0163,22.821696 13.0163,22.555776 L13.0163,21.598656 C13.0163,21.331776 13.2403,21.114816 13.5153,21.114816 L15.4873,21.114816 Z M15.521,11.521728 C17.427,11.521728 18.173,15.386688 17.967,16.317888 C17.853,16.834368 17.196,17.744448 16.977,18.236928 C16.691,18.877248 15.986,20.155968 15.986,20.155968 C15.671,20.125248 15.001,20.100288 14.346,20.100288 C13.835,20.100288 13.334,20.115648 13.017,20.155968 C13.027,19.975488 13.017,19.291008 13.017,19.195968 C13.017,18.410688 12.16,17.268288 12.026,16.317888 C11.762,14.445888 13.547,11.575488 15.481,11.521728 C15.495,11.521728 15.508,11.521728 15.521,11.521728 Z M15.625,16.587648 C15.741,16.392768 15.925,16.081728 16.003,15.914688 C16.021,15.310848 15.683,14.064768 15.336,13.534848 C15.194,13.623168 14.994,13.785408 14.77,14.064768 C14.214,14.755008 13.946,15.620928 14.008,16.060608 C14.034,16.245888 14.229,16.668288 14.371,16.977408 C14.532,17.328768 14.706,17.707008 14.832,18.106368 C14.954,17.869248 15.065,17.644608 15.138,17.483328 C15.266,17.195328 15.44,16.899648 15.625,16.587648 Z M22.4844,15.354816 C22.7594,15.354816 22.9834,15.571776 22.9834,15.838656 L22.9834,16.795776 C22.9834,17.061696 22.7624,17.278656 22.4884,17.280576 C22.3764,17.281536 22.2624,17.281536 22.1504,17.281536 C21.5364,17.281536 20.9284,17.270976 20.5054,17.268096 C20.2304,17.266176 20.0134,17.051136 20.0134,16.784256 L20.0134,15.838656 C20.0134,15.571776 20.2374,15.354816 20.5124,15.354816 L22.4844,15.354816 Z M21.6289,11.21712 C21.4679,11.56944 21.2939,11.94672 21.1679,12.34608 C21.0459,12.10896 20.9349,11.88432 20.8619,11.72208 C20.7339,11.43504 20.5599,11.13936 20.3749,10.82736 C20.2589,10.63248 20.0749,10.32144 19.9969,10.1544 C19.9799,9.55056 20.3169,8.30544 20.6639,7.77552 C20.8059,7.86384 21.0059,8.02512 21.2309,8.30448 C21.7859,8.99472 22.0539,9.86064 21.9919,10.30032 C21.9659,10.4856 21.7719,10.908 21.6289,11.21712 Z M20.5189,5.76144 C20.5049,5.76144 20.4919,5.76144 20.4789,5.76144 C18.5729,5.76144 17.8269,9.6264 18.0329,10.5576 C18.1479,11.07408 18.8039,11.98416 19.0239,12.47664 C19.3089,13.11696 20.0139,14.39568 20.0139,14.39568 C20.3289,14.36496 20.9989,14.33904 21.6539,14.33904 C22.1649,14.33904 22.6659,14.35536 22.9829,14.39568 C22.9729,14.21616 22.9829,13.53168 22.9829,13.43568 C22.9829,12.6504 23.8399,11.508 23.9739,10.5576 C24.2379,8.6856 22.4529,5.8152 20.5189,5.76144 Z" id="path-1"></path>
    </defs>
    <g id="icon/24x24_near_by_o" stroke="none" stroke-width="1" fill="none" fill-rule="evenodd">
        <mask id="mask-2" fill="white">
            <use xlink:href="#path-1"></use>
        </mask>
        <g id="24x24_near_by_o" fill-rule="nonzero"></g>
        <g id="COLOR/JJ_4.black" mask="url(#mask-2)" fill="#0F0A0A">
            <rect id="Rectangle" x="0" y="0" width="24" height="24"></rect>
        </g>
    </g>
</svg>