<?xml version="1.0" encoding="UTF-8"?>
<svg width="24px" height="24px" viewBox="0 0 24 24" version="1.1" xmlns="http://www.w3.org/2000/svg" xmlns:xlink="http://www.w3.org/1999/xlink">
    <!-- Generator: Sketch 49.1 (51147) - http://www.bohemiancoding.com/sketch -->
    <title>icon/24x24_paper_plane_o</title>
    <desc>Created with Sketch.</desc>
    <defs>
        <path d="M22.7094054,3.65488971 C22.422592,3.23701054 21.9705321,3 21.500031,3 C21.3784083,3 21.2553928,3.01583642 21.13377,3.04864045 L2.13410673,9.28439977 C1.54610575,9.44252587 1.10518858,9.96346087 1.0161583,10.6041812 C0.92757373,11.24508 1.20853725,11.8799658 1.72845625,12.2132452 L5.7461844,14.7892836 L5.7461844,20.4400293 C5.7461844,20.6539996 5.86017435,20.8491568 6.03996203,20.9431037 C6.21974971,21.0370506 6.4340798,21.0132959 6.59186062,20.8819012 L10.3601591,17.7477181 L13.4559391,19.7326293 C13.6975132,19.887481 13.9634897,19.9611858 14.2263463,19.9611858 C14.7301641,19.9611858 15.2220592,19.6898234 15.5051956,19.1979417 L22.7775431,5.44309584 C23.0972275,4.88768983 23.070485,4.18070662 22.7094054,3.65488971 Z M14.1364804,17.9586522 L9.4258426,14.9383603 L14.2048409,10.5376205 C14.2718643,10.4760014 14.2875198,10.3720525 14.2420576,10.2911439 C14.1965396,10.2101757 14.1033865,10.1757642 14.0209304,10.2099375 L6.74161868,13.2174292 L3.20598003,10.9504392 L20.9145929,5.0618905 L14.1364804,17.9586522 Z" id="path-1"></path>
    </defs>
    <g id="icon/24x24_paper_plane_o" stroke="none" stroke-width="1" fill="none" fill-rule="evenodd">
        <mask id="mask-2" fill="white">
            <use xlink:href="#path-1"></use>
        </mask>
        <g id="24x24_paper_plane_o" fill-rule="nonzero"></g>
        <g id="COLOR/JJ_4.black" mask="url(#mask-2)" fill="#0F0A0A">
            <rect id="Rectangle" x="0" y="0" width="24" height="24"></rect>
        </g>
    </g>
</svg>