<?xml version="1.0" encoding="UTF-8"?>
<svg width="24px" height="24px" viewBox="0 0 24 24" version="1.1" xmlns="http://www.w3.org/2000/svg" xmlns:xlink="http://www.w3.org/1999/xlink">
    <!-- Generator: Sketch 49.1 (51147) - http://www.bohemiancoding.com/sketch -->
    <title>icon/24x24_phone_o</title>
    <desc>Created with Sketch.</desc>
    <defs>
        <path d="M21.696139,17.3673807 C21.7102147,16.7865712 21.3067816,16.3104264 20.7680399,16.2343783 C19.6391258,16.085486 18.5306788,15.8093604 17.4613816,15.410347 C17.0627225,15.2604914 16.6133055,15.3563387 16.3148009,15.6514972 L14.9293464,17.0369518 C14.5820959,17.3842023 14.0456256,17.4566252 13.6187268,17.2138839 C10.7168896,15.5638537 8.31421156,13.1611756 6.66418136,10.2593385 C6.42144003,9.83243967 6.49386288,9.29596939 6.84111343,8.94871883 L8.22226377,7.56759265 C8.52172653,7.2647597 8.61757377,6.81534266 8.46679655,6.41422243 C8.06870483,5.3473864 7.79257927,4.23893948 7.64505717,3.12005522 C7.56842126,2.57785567 7.10171029,2.17648423 6.54341173,2.18192624 L3.2717118,2.18192575 C2.96549048,2.18221413 2.67348973,2.31119285 2.46703859,2.53735541 C2.26058744,2.76351797 2.15869718,3.06603793 2.1845849,3.35399942 C2.52457402,6.5556047 3.61394523,9.63210257 5.36960859,12.3423028 C6.95862782,14.8429562 9.07874539,16.9630738 11.5878857,18.5575412 C14.2778181,20.3019526 17.3394268,21.3910764 20.5070571,21.7354451 C20.8129828,21.7630932 21.1163885,21.660484 21.3427359,21.452826 C21.5690832,21.2451679 21.6973948,20.9517061 21.696139,20.640108 L21.696139,17.3673807 Z M23.8779482,20.6356801 C23.8816886,21.5571902 23.4967539,22.4375756 22.817712,23.0605499 C22.13867,23.6835242 21.2284528,23.9913515 20.2910237,23.9064518 C16.7644887,23.523265 13.3770036,22.3182153 10.4092428,20.3935776 C7.63824852,18.6327725 5.28892906,16.2834531 3.53328823,13.5205077 C1.59646671,10.5307404 0.391143273,7.12678135 0.0132934907,3.56738126 C-0.0693867144,2.65244508 0.236284047,1.74488522 0.855637494,1.06639753 C1.47499093,0.38790984 2.35099316,0.000973657801 3.27068446,0.000108054164 L6.53267539,0.000160886892 C8.17536202,-0.0160066477 9.57549495,1.18810767 9.80677288,2.82473625 C9.93414895,3.79051252 10.170372,4.73877926 10.5100142,5.64898708 C10.9595806,6.84496441 10.6720389,8.19321552 9.7693464,9.10604272 L8.9870636,9.88832553 C10.2698156,11.9006697 11.9774014,13.6082546 13.9897461,14.8910057 L14.7763509,14.1044146 C15.6848497,13.2060263 17.0331009,12.9184846 18.2266171,13.3671292 C19.139286,13.7076933 20.0875527,13.9439163 21.063076,14.0726227 C22.7036316,14.3040649 23.9116137,15.7246769 23.8779572,17.3795736 L23.8779482,20.6356801 Z" id="path-1"></path>
    </defs>
    <g id="icon/24x24_phone_o" stroke="none" stroke-width="1" fill="none" fill-rule="evenodd">
        <mask id="mask-2" fill="white">
            <use xlink:href="#path-1"></use>
        </mask>
        <g id="24x24_phone_o" fill-rule="nonzero"></g>
        <g id="COLOR/JJ_4.black" mask="url(#mask-2)" fill="#0F0A0A">
            <rect id="Rectangle" x="0" y="0" width="24" height="24"></rect>
        </g>
    </g>
</svg>