<?xml version="1.0" encoding="UTF-8"?>
<svg width="24px" height="24px" viewBox="0 0 24 24" version="1.1" xmlns="http://www.w3.org/2000/svg" xmlns:xlink="http://www.w3.org/1999/xlink">
    <!-- Generator: Sketch 49.1 (51147) - http://www.bohemiancoding.com/sketch -->
    <title>icon/24x24_phone_forwarded_o</title>
    <desc>Created with Sketch.</desc>
    <defs>
        <path d="M19.5678024,7.01914143 L13.9536278,7.01914143 C13.3985362,7.01914143 12.9485455,6.56999786 12.9485455,6.01595119 C12.9485455,5.46190452 13.3985362,5.01276095 13.9536278,5.01276095 L19.5678024,5.01276095 L17.2632562,2.71255286 C16.8707472,2.3207827 16.8707472,1.68559778 17.2632562,1.29382762 C17.6557652,0.902057461 18.2921481,0.902057461 18.6846571,1.29382762 L22.704986,5.30658857 C23.097495,5.69835873 23.097495,6.33354366 22.704986,6.72531381 L18.6846571,10.7380748 C18.2921481,11.1298449 17.6557652,11.1298449 17.2632562,10.7380748 C16.8707472,10.3463046 16.8707472,9.71111968 17.2632562,9.31934953 L19.5678024,7.01914143 Z M22.9993677,17.9851913 L22.9993595,20.9794776 C23.0028056,21.8268901 22.6481556,22.6364846 22.022537,23.2093662 C21.3969183,23.7822478 20.5583122,24.0653231 19.694635,23.9872501 C16.4455488,23.6348749 13.3245728,22.5267219 10.5902995,20.7568424 C8.03731215,19.1376218 5.87282453,16.9772086 4.25530809,14.4364287 C2.47086529,11.6870655 1.36037022,8.55681523 1.01224763,5.28362276 C0.93607226,4.44225564 1.21769449,3.60767172 1.78832053,2.98374051 C2.35894657,2.3598093 3.16602964,2.00398625 4.01336457,2.00319024 L7.01871957,2.00323882 C8.53216845,1.98837131 9.82214644,3.09566406 10.0352287,4.60069305 C10.1525835,5.48881228 10.3702217,6.36082988 10.6831428,7.19784886 C11.0973397,8.2976589 10.8324202,9.53749856 10.0007467,10.3769263 L9.2800097,11.0963065 C10.4618416,12.9468402 12.0350838,14.5171201 13.889108,15.6967265 L14.613827,14.9733844 C15.45085,14.1472345 16.6930279,13.8828137 17.7926447,14.2953833 C18.6335098,14.6085629 19.507172,14.8257915 20.4059464,14.9441487 C21.9174318,15.156981 23.0303763,16.4633631 22.9993677,17.9851913 Z M20.9892033,17.9739788 C21.0021716,17.4398716 20.6304784,17.002013 20.1341221,16.9320799 C19.0940248,16.7951598 18.0727845,16.5412372 17.087614,16.174308 C16.7203192,16.0365023 16.3062599,16.1246425 16.03124,16.3960677 L14.7547856,17.6701193 C14.4348549,17.9894478 13.9405912,18.0560472 13.5472785,17.8328245 C10.8737423,16.3154714 8.66009406,14.1059902 7.13987936,11.4374867 C6.91623562,11.0449144 6.98296062,10.5515811 7.30289136,10.2322526 L8.57538021,8.96218136 C8.85128286,8.6836989 8.93958934,8.27041901 8.80067447,7.90155242 C8.43390247,6.92049956 8.17950098,5.90118169 8.04358513,4.87226574 C7.97297853,4.37366388 7.54298587,4.00456629 7.02861124,4.00957072 L4.01431108,4.00957027 C3.73218161,4.00983546 3.46315392,4.12844314 3.27294524,4.33642021 C3.08273656,4.54439728 2.98886248,4.82259192 3.01271349,5.08739874 C3.32595409,8.0315663 4.32961944,10.8606862 5.94715663,13.3529621 C7.41116036,15.6525406 9.36447846,17.6021817 11.6762131,19.0684397 C14.154516,20.6725848 16.9752539,21.6741333 19.893672,21.9908117 C20.1755292,22.0162366 20.4550646,21.9218782 20.6636041,21.7309177 C20.8721436,21.5399571 20.9903603,21.2700923 20.9892033,20.9835496 L20.9892033,17.9739788 Z" id="path-1"></path>
    </defs>
    <g id="icon/24x24_phone_forwarded_o" stroke="none" stroke-width="1" fill="none" fill-rule="evenodd">
        <mask id="mask-2" fill="white">
            <use xlink:href="#path-1"></use>
        </mask>
        <g id="24x24_phone_forwarded_o" fill-rule="nonzero"></g>
        <g id="COLOR/JJ_4.black" mask="url(#mask-2)" fill="#0F0A0A">
            <rect id="Rectangle" x="0" y="0" width="24" height="24"></rect>
        </g>
    </g>
</svg>