<?xml version="1.0" encoding="UTF-8"?>
<svg width="24px" height="24px" viewBox="0 0 24 24" version="1.1" xmlns="http://www.w3.org/2000/svg" xmlns:xlink="http://www.w3.org/1999/xlink">
    <!-- Generator: Sketch 49.1 (51147) - http://www.bohemiancoding.com/sketch -->
    <title>icon/24x24_restaurant_o</title>
    <desc>Created with Sketch.</desc>
    <defs>
        <path d="M19,16 L19,18 L19,21 C19,21.552 18.553,22 18,22 C17.447,22 17,21.552 17,21 L17,18 L17,16 L17,13 C17,12.448 17.447,12 18,12 C18.553,12 19,12.448 19,13 L19,16 Z M17,8 L17,5 C17,4.115 17.391,3.328 18,2.778 L18,10 C17.647,10 17.314,10.072 17,10.184 L17,10 L17,8 Z M20,10.778 L20,2 L20,0 C17.238,0 15,2.239 15,5 L15,10 C15,10.51 15.197,10.971 15.512,11.324 C15.188,11.803 15,12.379 15,13 L15,16 L15,18 L15,21 C15,22.657 16.343,24 18,24 C19.657,24 21,22.657 21,21 L21,18 L21,16 L21,13 C21,12.115 20.609,11.328 20,10.778 Z M9,16 L9,18 L9,21 C9,21.552 8.553,22 8,22 C7.447,22 7,21.552 7,21 L7,18 L7,16 L7,13 C7,12.448 7.447,12 8,12 C8.553,12 9,12.448 9,13 L9,16 Z M12,0 C11.447,0 11,0.448 11,1 L11,6 C11,6.552 10.553,7 10,7 C9.447,7 9,6.552 9,6 L9,1 C9,0.448 8.553,0 8,0 C7.447,0 7,0.448 7,1 L7,6 C7,6.552 6.553,7 6,7 C5.447,7 5,6.552 5,6 L5,1 C5,0.448 4.553,0 4,0 C3.447,0 3,0.448 3,1 L3,6 C3,7.657 4.343,9 6,9 C6.353,9 6.686,8.928 7,8.816 L7,10.184 C5.838,10.597 5,11.696 5,13 L5,16 L5,18 L5,21 C5,22.657 6.343,24 8,24 C9.657,24 11,22.657 11,21 L11,18 L11,16 L11,13 C11,11.696 10.162,10.597 9,10.184 L9,8.816 C9.314,8.928 9.647,9 10,9 C11.657,9 13,7.657 13,6 L13,1 C13,0.448 12.553,0 12,0 Z" id="path-1"></path>
    </defs>
    <g id="icon/24x24_restaurant_o" stroke="none" stroke-width="1" fill="none" fill-rule="evenodd">
        <mask id="mask-2" fill="white">
            <use xlink:href="#path-1"></use>
        </mask>
        <g id="24x24_restaurant_o" fill-rule="nonzero"></g>
        <g id="COLOR/JJ_4.black" mask="url(#mask-2)" fill="#0F0A0A">
            <rect id="Rectangle" x="0" y="0" width="24" height="24"></rect>
        </g>
    </g>
</svg>