<?xml version="1.0" encoding="UTF-8"?>
<svg width="24px" height="24px" viewBox="0 0 24 24" version="1.1" xmlns="http://www.w3.org/2000/svg" xmlns:xlink="http://www.w3.org/1999/xlink">
    <!-- Generator: Sketch 49.1 (51147) - http://www.bohemiancoding.com/sketch -->
    <title>icon/24x24_search</title>
    <desc>Created with Sketch.</desc>
    <defs>
        <path d="M18.2112302,16.5141739 L23.6485281,21.9514718 C24.1171573,22.420101 24.1171573,23.179899 23.6485281,23.6485281 C23.179899,24.1171573 22.420101,24.1171573 21.9514718,23.6485281 L16.5141739,18.2112302 C14.7774227,19.5819555 12.5842436,20.4 10.2,20.4 C4.56669555,20.4 0,15.8333045 0,10.2 C0,4.56669555 4.56669555,0 10.2,0 C15.8333045,0 20.4,4.56669555 20.4,10.2 C20.4,12.5842436 19.5819555,14.7774227 18.2112302,16.5141739 Z M15.7917107,15.638092 C17.1583405,14.2331009 18,12.3148405 18,10.2 C18,5.89217896 14.5078211,2.4 10.2,2.4 C5.89217896,2.4 2.4,5.89217896 2.4,10.2 C2.4,14.5078211 5.89217896,18 10.2,18 C12.3148405,18 14.2331009,17.1583405 15.638092,15.7917107 C15.6611216,15.7641412 15.6855816,15.7373622 15.7114718,15.7114718 C15.7373622,15.6855816 15.7641412,15.6611216 15.7917107,15.638092 Z" id="path-1"></path>
    </defs>
    <g id="icon/24x24_search" stroke="none" stroke-width="1" fill="none" fill-rule="evenodd">
        <mask id="mask-2" fill="white">
            <use xlink:href="#path-1"></use>
        </mask>
        <g id="24x24_search" fill-rule="nonzero"></g>
        <g id="COLOR/JJ_4.black" mask="url(#mask-2)" fill="#0F0A0A">
            <rect id="Rectangle" x="0" y="0" width="24" height="24"></rect>
        </g>
    </g>
</svg>