<?xml version="1.0" encoding="UTF-8"?>
<svg width="24px" height="24px" viewBox="0 0 24 24" version="1.1" xmlns="http://www.w3.org/2000/svg" xmlns:xlink="http://www.w3.org/1999/xlink">
    <!-- Generator: Sketch 49.1 (51147) - http://www.bohemiancoding.com/sketch -->
    <title>icon/24x24_search_deal_o</title>
    <desc>Created with Sketch.</desc>
    <defs>
        <path d="M20.887,17.473 L23.707,20.293 C24.098,20.684 24.098,21.316 23.707,21.707 C23.512,21.902 23.256,22 23,22 C22.744,22 22.488,21.902 22.293,21.707 L19.473,18.887 C18.492,19.585 17.296,20 16,20 C12.687,20 10,17.313 10,14 C10,10.687 12.687,8 16,8 C19.313,8 22,10.687 22,14 C22,15.296 21.585,16.492 20.887,17.473 Z M16,18 C18.206,18 20,16.206 20,14 C20,11.794 18.206,10 16,10 C13.794,10 12,11.794 12,14 C12,16.206 13.794,18 16,18 Z M2.9961,4 C2.4561,4 2.0001,4.456 2.0001,4.996 L2.0001,15 C2.0001,15.54 2.4561,15.996 2.9961,15.996 L5.0001,15.996 C5.5521,15.996 6.0001,16.443 6.0001,16.996 C6.0001,17.548 5.5521,17.996 5.0001,17.996 L2.9961,17.996 C1.3481,17.996 0.0001,16.647 0.0001,15 L0.0001,4.996 C0.0001,3.348 1.3481,2 2.9961,2 L5.0001,2 C5.5521,2 6.0001,2.448 6.0001,3 C6.0001,3.552 5.5521,4 5.0001,4 L2.9961,4 Z M8,8.9961 C8.552,8.9961 9,9.4431 9,9.9961 C9,10.5481 8.552,10.9961 8,10.9961 C7.448,10.9961 7,10.5481 7,9.9961 C7,9.4431 7.448,8.9961 8,8.9961 Z M8,12.9961 C8.552,12.9961 9,13.4431 9,13.9961 C9,14.5481 8.552,14.9961 8,14.9961 C7.448,14.9961 7,14.5481 7,13.9961 C7,13.4431 7.448,12.9961 8,12.9961 Z M8,4.9961 C8.552,4.9961 9,5.4431 9,5.9961 C9,6.5481 8.552,6.9961 8,6.9961 C7.448,6.9961 7,6.5481 7,5.9961 C7,5.4431 7.448,4.9961 8,4.9961 Z M21.0039,2 C22.6519,2 23.9999,3.348 23.9999,4.996 L23.9999,9 C23.9999,9.552 23.5519,10 22.9999,10 C22.4479,10 21.9999,9.552 21.9999,9 L21.9999,4.996 C21.9999,4.456 21.5439,4 21.0039,4 L10.9999,4 C10.4479,4 9.9999,3.552 9.9999,3 C9.9999,2.448 10.4479,2 10.9999,2 L21.0039,2 Z" id="path-1"></path>
    </defs>
    <g id="icon/24x24_search_deal_o" stroke="none" stroke-width="1" fill="none" fill-rule="evenodd">
        <mask id="mask-2" fill="white">
            <use xlink:href="#path-1"></use>
        </mask>
        <g id="24x24_search_deal_o" fill-rule="nonzero"></g>
        <g id="COLOR/JJ_4.black" mask="url(#mask-2)" fill="#0F0A0A">
            <rect id="Rectangle" x="0" y="0" width="24" height="24"></rect>
        </g>
    </g>
</svg>