<?xml version="1.0" encoding="UTF-8"?>
<svg width="24px" height="24px" viewBox="0 0 24 24" version="1.1" xmlns="http://www.w3.org/2000/svg" xmlns:xlink="http://www.w3.org/1999/xlink">
    <!-- Generator: Sketch 49.1 (51147) - http://www.bohemiancoding.com/sketch -->
    <title>icon/24x24_share_ios_o</title>
    <desc>Created with Sketch.</desc>
    <defs>
        <path d="M13.1111111,3.72459661 L13.1111111,15.2727273 C13.1111111,15.8752197 12.6136497,16.3636364 12,16.3636364 C11.3863503,16.3636364 10.8888889,15.8752197 10.8888889,15.2727273 L10.8888889,3.72459661 L8.34122976,6.22593467 C7.90731388,6.65196117 7.20379723,6.65196117 6.76988136,6.22593467 C6.33596548,5.79990817 6.33596548,5.10918274 6.76988136,4.68315624 L11.2143258,0.319519876 C11.6482417,-0.106506625 12.3517583,-0.106506625 12.7856742,0.319519876 L17.2301187,4.68315624 C17.6640346,5.10918274 17.6640346,5.79990817 17.2301187,6.22593467 C16.7962028,6.65196117 16.0926861,6.65196117 15.6587702,6.22593467 L13.1111111,3.72459661 Z M2,12 C2,11.3975076 2.49746139,10.9090909 3.11111111,10.9090909 C3.72476083,10.9090909 4.22222222,11.3975076 4.22222222,12 L4.22222222,20.7272727 C4.22222222,21.3297651 4.71968361,21.8181818 5.33333333,21.8181818 L18.6666667,21.8181818 C19.2803163,21.8181818 19.7777778,21.3297651 19.7777778,20.7272727 L19.7777778,12 C19.7777778,11.3975076 20.2752392,10.9090909 20.8888889,10.9090909 C21.5025386,10.9090909 22,11.3975076 22,12 L22,20.7272727 C22,22.53475 20.5076158,24 18.6666667,24 L5.33333333,24 C3.49238417,24 2,22.53475 2,20.7272727 L2,12 Z" id="path-1"></path>
    </defs>
    <g id="icon/24x24_share_ios_o" stroke="none" stroke-width="1" fill="none" fill-rule="evenodd">
        <mask id="mask-2" fill="white">
            <use xlink:href="#path-1"></use>
        </mask>
        <g id="24x24_share_ios_o" fill-rule="nonzero"></g>
        <g id="COLOR/JJ_4.black" mask="url(#mask-2)" fill="#0F0A0A">
            <rect id="Rectangle" x="0" y="0" width="24" height="24"></rect>
        </g>
    </g>
</svg>