<?xml version="1.0" encoding="UTF-8"?>
<svg width="24px" height="24px" viewBox="0 0 24 24" version="1.1" xmlns="http://www.w3.org/2000/svg" xmlns:xlink="http://www.w3.org/1999/xlink">
    <!-- Generator: Sketch 49.1 (51147) - http://www.bohemiancoding.com/sketch -->
    <title>icon/24x24_share_android_o</title>
    <desc>Created with Sketch.</desc>
    <defs>
        <path d="M9.63537673,10.8134389 C9.74262393,11.1907072 9.8,11.5887085 9.8,12 C9.8,12.4110713 9.74268534,12.8088668 9.63554888,13.1859553 L15.4774507,16.5620335 C16.274569,15.7657757 17.3792258,15.2727273 18.6,15.2727273 C21.0300529,15.2727273 23,17.2263938 23,19.6363636 C23,22.0463335 21.0300529,24 18.6,24 C16.1699471,24 14.2,22.0463335 14.2,19.6363636 C14.2,19.2233083 14.2578692,18.8236573 14.3660058,18.4449499 L8.52657753,15.0703011 C7.72915464,15.8689244 6.62283185,16.3636364 5.4,16.3636364 C2.9699471,16.3636364 1,14.4099698 1,12 C1,9.59003018 2.9699471,7.63636364 5.4,7.63636364 C6.62260389,7.63636364 7.72874214,8.13089123 8.52613151,8.92925229 L14.3646232,5.55019741 C14.2573761,5.17292913 14.2,4.77492782 14.2,4.36363636 C14.2,1.95366655 16.1699471,0 18.6,0 C21.0300529,0 23,1.95366655 23,4.36363636 C23,6.77360618 21.0300529,8.72727273 18.6,8.72727273 C17.3773961,8.72727273 16.2712579,8.23274513 15.4738685,7.43438408 L9.63537673,10.8134389 Z M7.3313334,10.9543066 C7.3201282,10.9374629 7.30932512,10.9202179 7.29894428,10.9025765 C7.28863917,10.885064 7.2788815,10.8673843 7.26966608,10.8495567 C6.88147674,10.2303814 6.18927671,9.81818182 5.4,9.81818182 C4.18497355,9.81818182 3.2,10.7950151 3.2,12 C3.2,13.2049849 4.18497355,14.1818182 5.4,14.1818182 C6.18927937,14.1818182 6.88148142,13.7696158 7.26967001,13.1504371 C7.27877886,13.1328157 7.28841751,13.1153385 7.29859096,13.0980243 C7.30908089,13.0801715 7.32000318,13.0627239 7.33133702,13.0456869 C7.50262356,12.7351951 7.6,12.3788752 7.6,12 C7.6,11.621122 7.50262219,11.2647999 7.3313334,10.9543066 Z M16.730334,5.51407965 C17.1185233,6.13325496 17.8107233,6.54545455 18.6,6.54545455 C19.8150265,6.54545455 20.8,5.56862127 20.8,4.36363636 C20.8,3.15865145 19.8150265,2.18181818 18.6,2.18181818 C17.3849736,2.18181818 16.4,3.15865145 16.4,4.36363636 C16.4,4.74251431 16.4973778,5.09883641 16.6686666,5.40932978 C16.6798718,5.42617345 16.6906749,5.44341855 16.7010557,5.46105982 C16.7113608,5.47857237 16.7211185,5.49625215 16.730334,5.51407965 Z M16.6367852,18.6506628 C16.4853468,18.9467301 16.4,19.2816623 16.4,19.6363636 C16.4,20.8413485 17.3849736,21.8181818 18.6,21.8181818 C19.8150265,21.8181818 20.8,20.8413485 20.8,19.6363636 C20.8,18.4313787 19.8150265,17.4545455 18.6,17.4545455 C17.8378693,17.4545455 17.1662524,17.8388787 16.7714579,18.4227765 C16.7542904,18.4619439 16.7346248,18.5005303 16.712409,18.5383393 C16.6892362,18.5777772 16.6639534,18.6152379 16.6367852,18.6506628 Z" id="path-1"></path>
    </defs>
    <g id="icon/24x24_share_android_o" stroke="none" stroke-width="1" fill="none" fill-rule="evenodd">
        <mask id="mask-2" fill="white">
            <use xlink:href="#path-1"></use>
        </mask>
        <g id="24x24_share_android_o" fill-rule="nonzero"></g>
        <g id="COLOR/JJ_4.black" mask="url(#mask-2)" fill="#0F0A0A">
            <rect id="Rectangle" x="0" y="0" width="24" height="24"></rect>
        </g>
    </g>
</svg>