<?xml version="1.0" encoding="UTF-8"?>
<svg width="24px" height="24px" viewBox="0 0 24 24" version="1.1" xmlns="http://www.w3.org/2000/svg" xmlns:xlink="http://www.w3.org/1999/xlink">
    <!-- Generator: Sketch 49.1 (51147) - http://www.bohemiancoding.com/sketch -->
    <title>icon/24x24_shop_o</title>
    <desc>Created with Sketch.</desc>
    <defs>
        <path d="M21.6,8.4 C21.6,9.7248 20.5248,10.8 19.2,10.8 C17.8752,10.8 16.8,9.7248 16.8,8.4 C16.8,7.7376 16.2636,7.2 15.6,7.2 C14.9364,7.2 14.4,7.7376 14.4,8.4 C14.4,9.7248 13.3248,10.8 12,10.8 C10.6752,10.8 9.6,9.7248 9.6,8.4 C9.6,7.7376 9.0636,7.2 8.4,7.2 C7.7364,7.2 7.2,7.7376 7.2,8.4 C7.2,9.7248 6.1248,10.8 4.8,10.8 C3.4752,10.8 2.4,9.7248 2.4,8.4 L2.4,2.4 L21.6,2.4 L21.6,8.4 Z M19.2,21.6 L16.8,21.6 L16.8,16.8 L16.8,15.5988 C16.8,14.9364 16.2636,14.4 15.6012,14.4 L8.4024,14.4 C7.7376,14.4 7.2,14.9388 7.2,15.6024 L7.2,16.8 L7.2,21.6 L4.8,21.6 L4.8,13.2 C6.2412,13.2 7.5204,12.5508 8.4,11.5452 C9.2796,12.5508 10.5588,13.2 12,13.2 C13.4412,13.2 14.7204,12.5508 15.6,11.5452 C16.4796,12.5508 17.7588,13.2 19.2,13.2 L19.2,21.6 Z M22.8048,0 L21.6,0 L2.4,0 L1.2012,0 C0.5376,0 0,0.5376 0,1.2 L0,8.4 C0,10.1724 0.972,11.7024 2.4,12.534 L2.4,22.7964 C2.4,23.46 2.9364,23.9976 3.6,24 L3.6036,24 L4.8,24 L7.2,24 L8.3976,24 C9.0612,24 9.6,23.4612 9.6,22.7976 L9.6,16.8 L14.4,16.8 L14.4,22.8012 C14.4,23.4636 14.9364,24 15.5988,24 L16.8,24 L19.2,24 L20.4,24 L20.4048,24 C21.0648,24 21.6,23.4648 21.6,22.8048 L21.6,12.534 C23.028,11.7024 24,10.1724 24,8.4 L24,1.1952 C24,0.5352 23.466,0 22.8048,0 Z" id="path-1"></path>
    </defs>
    <g id="icon/24x24_shop_o" stroke="none" stroke-width="1" fill="none" fill-rule="evenodd">
        <mask id="mask-2" fill="white">
            <use xlink:href="#path-1"></use>
        </mask>
        <g id="24x24_shop_o" fill-rule="nonzero"></g>
        <g id="COLOR/JJ_4.black" mask="url(#mask-2)" fill="#0F0A0A">
            <rect id="Rectangle" x="0" y="0" width="24" height="24"></rect>
        </g>
    </g>
</svg>