<?xml version="1.0" encoding="UTF-8"?>
<svg width="24px" height="24px" viewBox="0 0 24 24" version="1.1" xmlns="http://www.w3.org/2000/svg" xmlns:xlink="http://www.w3.org/1999/xlink">
    <!-- Generator: Sketch 49.1 (51147) - http://www.bohemiancoding.com/sketch -->
    <title>icon/24x24_sort_1_o</title>
    <desc>Created with Sketch.</desc>
    <defs>
        <path d="M8.50866667,0.101 C8.83533333,0.237 9.094,0.495666667 9.23,0.822333333 C9.298,0.985 9.33266667,1.15833333 9.33266667,1.33166667 L9.33266667,22.665 C9.33266667,23.401 8.73666667,23.9983333 7.99933333,23.9983333 C7.262,23.9983333 6.666,23.401 6.666,22.665 L6.666,4.55033333 L2.27533333,8.941 C2.01533333,9.201 1.674,9.33166667 1.33266667,9.33166667 C0.991333333,9.33166667 0.65,9.201 0.39,8.941 C-0.13,8.41966667 -0.13,7.57566667 0.39,7.05566667 L7.05533333,0.390333333 C7.17933333,0.266333333 7.326,0.169 7.49,0.101 C7.81533333,-0.0336666667 8.18333333,-0.0336666667 8.50866667,0.101 Z M23.6093333,15.0573333 C24.1306667,15.5786667 24.1306667,16.4213333 23.6093333,16.9426667 L16.944,23.608 C16.82,23.732 16.6733333,23.8293333 16.5093333,23.8973333 C16.3466667,23.9653333 16.1733333,24 16,24 C15.8266667,24 15.6533333,23.9653333 15.4906667,23.8973333 C15.164,23.7613333 14.9053333,23.5013333 14.7693333,23.176 C14.7013333,23.0133333 14.6666667,22.84 14.6666667,22.6666667 L14.6666667,1.33333333 C14.6666667,0.597333333 15.2626667,0 16,0 C16.7373333,0 17.3333333,0.597333333 17.3333333,1.33333333 L17.3333333,19.448 L21.724,15.0573333 C22.2453333,14.536 23.088,14.536 23.6093333,15.0573333 Z" id="path-1"></path>
    </defs>
    <g id="icon/24x24_sort_1_o" stroke="none" stroke-width="1" fill="none" fill-rule="evenodd">
        <mask id="mask-2" fill="white">
            <use xlink:href="#path-1"></use>
        </mask>
        <g id="24x24_sort_1_o" fill-rule="nonzero"></g>
        <g id="COLOR/JJ_4.black" mask="url(#mask-2)" fill="#0F0A0A">
            <rect id="Rectangle" x="0" y="0" width="24" height="24"></rect>
        </g>
    </g>
</svg>