<?xml version="1.0" encoding="UTF-8"?>
<svg width="24px" height="24px" viewBox="0 0 24 24" version="1.1" xmlns="http://www.w3.org/2000/svg" xmlns:xlink="http://www.w3.org/1999/xlink">
    <!-- Generator: Sketch 49.1 (51147) - http://www.bohemiancoding.com/sketch -->
    <title>icon/24x24_sort_2_o</title>
    <desc>Created with Sketch.</desc>
    <defs>
        <path d="M7.87534375,10.665 L7.87534375,4.55033333 L3.34746875,8.941 C3.07934375,9.201 2.72734375,9.33166667 2.37534375,9.33166667 C2.02334375,9.33166667 1.67134375,9.201 1.40321875,8.941 C0.86559375,8.41966667 0.86559375,7.577 1.40321875,7.05566667 L8.27684375,0.390333333 C8.40471875,0.266333333 8.55596875,0.169 8.72509375,0.101 C9.06059375,-0.0336666667 9.44009375,-0.0336666667 9.77559375,0.101 C9.94471875,0.169 10.0959687,0.266333333 10.2238438,0.390333333 L17.0974688,7.05566667 C17.6350937,7.577 17.6350937,8.41966667 17.0974688,8.941 C16.8293437,9.201 16.4773438,9.33166667 16.1253437,9.33166667 C15.7733437,9.33166667 15.4213438,9.201 15.1532188,8.941 L10.6253437,4.55033333 L10.6253437,10.665 C10.6253437,11.401 10.0107188,11.9983333 9.25034375,11.9983333 C8.48996875,11.9983333 7.87534375,11.401 7.87534375,10.665 Z M22.5974688,15.0556667 C23.1350938,15.577 23.1350938,16.4196667 22.5974688,16.941 L15.7238438,23.6063333 C15.5959688,23.7303333 15.4447188,23.8276667 15.2755938,23.8956667 C15.1078438,23.9636667 14.9290938,23.9983333 14.7503438,23.9983333 C14.5715938,23.9983333 14.3928438,23.9636667 14.2250938,23.8956667 C14.0559688,23.8276667 13.9047188,23.7303333 13.7768438,23.6063333 L6.90321875,16.941 C6.36559375,16.4196667 6.36559375,15.577 6.90321875,15.0556667 C7.44084375,14.5343333 8.30984375,14.5343333 8.84746875,15.0556667 L13.3753438,19.4463333 L13.3753438,13.3316667 C13.3753438,12.5956667 13.9899688,11.9983333 14.7503438,11.9983333 C15.5107188,11.9983333 16.1253437,12.5956667 16.1253437,13.3316667 L16.1253437,19.4463333 L20.6532188,15.0556667 C21.1908437,14.5343333 22.0598438,14.5343333 22.5974688,15.0556667 Z" id="path-1"></path>
    </defs>
    <g id="icon/24x24_sort_2_o" stroke="none" stroke-width="1" fill="none" fill-rule="evenodd">
        <mask id="mask-2" fill="white">
            <use xlink:href="#path-1"></use>
        </mask>
        <g id="24x24_sort_2_o" fill-rule="nonzero"></g>
        <g id="COLOR/JJ_4.black" mask="url(#mask-2)" fill="#0F0A0A">
            <rect id="Rectangle" x="0" y="0" width="24" height="24"></rect>
        </g>
    </g>
</svg>