<?xml version="1.0" encoding="UTF-8"?>
<svg width="24px" height="24px" viewBox="0 0 24 24" version="1.1" xmlns="http://www.w3.org/2000/svg" xmlns:xlink="http://www.w3.org/1999/xlink">
    <!-- Generator: Sketch 49.1 (51147) - http://www.bohemiancoding.com/sketch -->
    <title>icon/24x24_square_o</title>
    <desc>Created with Sketch.</desc>
    <defs>
        <path d="M3.6,2.4 C2.9372583,2.4 2.4,2.9372583 2.4,3.6 L2.4,20.4 C2.4,21.0627416 2.9372583,21.6 3.6,21.6 L20.4,21.6 C21.0627416,21.6 21.6,21.0627416 21.6,20.4 L21.6,3.6 C21.6,2.9372583 21.0627416,2.4 20.4,2.4 L3.6,2.4 Z M3.6,0 L20.4,0 C22.388225,0 24,1.6117749 24,3.6 L24,20.4 C24,22.388225 22.388225,24 20.4,24 L3.6,24 C1.6117749,24 0,22.388225 0,20.4 L0,3.6 C0,1.6117749 1.6117749,0 3.6,0 Z" id="path-1"></path>
    </defs>
    <g id="icon/24x24_square_o" stroke="none" stroke-width="1" fill="none" fill-rule="evenodd">
        <mask id="mask-2" fill="white">
            <use xlink:href="#path-1"></use>
        </mask>
        <g id="24x24_square_o" fill-rule="nonzero"></g>
        <g id="COLOR/JJ_4.black" mask="url(#mask-2)" fill="#0F0A0A">
            <rect id="Rectangle" x="0" y="0" width="24" height="24"></rect>
        </g>
    </g>
</svg>