<?xml version="1.0" encoding="UTF-8"?>
<svg width="24px" height="24px" viewBox="0 0 24 24" version="1.1" xmlns="http://www.w3.org/2000/svg" xmlns:xlink="http://www.w3.org/1999/xlink">
    <!-- Generator: Sketch 49.1 (51147) - http://www.bohemiancoding.com/sketch -->
    <title>icon/24x24_star_o</title>
    <desc>Created with Sketch.</desc>
    <defs>
        <path d="M9.19074332,8.92728973 C9.03887576,9.2498766 8.74546511,9.47357147 8.40596509,9.52560089 L3.28643478,10.3101846 L6.99007422,14.0924628 C7.23620334,14.343818 7.34854696,14.7061021 7.29046638,15.0611633 L6.41662866,20.403153 L10.9937083,17.8793865 C11.2977599,17.7117347 11.6610331,17.7117347 11.9650848,17.8793865 L16.5421643,20.403153 L15.6683266,15.0611633 C15.6102461,14.7061021 15.7225897,14.343818 15.9687188,14.0924628 L19.6723583,10.3101846 L14.5528279,9.52560089 C14.2133279,9.47357147 13.9199173,9.2498766 13.7680497,8.92728973 L11.4793965,4.06588624 L9.19074332,8.92728973 Z M7.5619064,7.44354407 L10.5437019,1.10981424 C10.9264867,0.296728586 12.0323064,0.296728586 12.4150912,1.10981424 L15.3968866,7.44354407 L22.0650955,8.46546748 C22.9206586,8.59658515 23.2616501,9.69924451 22.6422481,10.3317981 L17.8180279,15.2584504 L18.9565534,22.2185422 C19.102764,23.1123647 18.2079304,23.7939362 17.4424039,23.3718308 L11.4793965,20.0838744 L5.51638916,23.3718308 C4.75086265,23.7939362 3.85602907,23.1123647 4.00223971,22.2185422 L5.1407651,15.2584504 L0.316544911,10.3317981 C-0.302857037,9.69924451 0.0381343825,8.59658515 0.893697516,8.46546748 L7.5619064,7.44354407 Z" id="path-1"></path>
    </defs>
    <g id="icon/24x24_star_o" stroke="none" stroke-width="1" fill="none" fill-rule="evenodd">
        <mask id="mask-2" fill="white">
            <use xlink:href="#path-1"></use>
        </mask>
        <g id="24x24_star_o" fill-rule="nonzero"></g>
        <g id="COLOR/JJ_4.black" mask="url(#mask-2)" fill="#0F0A0A">
            <rect id="Rectangle" x="0" y="0" width="24" height="24"></rect>
        </g>
    </g>
</svg>