<?xml version="1.0" encoding="UTF-8"?>
<svg width="24px" height="24px" viewBox="0 0 24 24" version="1.1" xmlns="http://www.w3.org/2000/svg" xmlns:xlink="http://www.w3.org/1999/xlink">
    <!-- Generator: Sketch 49.1 (51147) - http://www.bohemiancoding.com/sketch -->
    <title>icon/24x24_stroller_o</title>
    <desc>Created with Sketch.</desc>
    <defs>
        <path d="M22,3 C22.552,3 23,3.448 23,4 C23,4.552 22.552,5 22,5 L20.48,5 L16.981,9.374 C16.784,13.617 13.292,17 9,17 C4.582,17 1,13.418 1,9 C1,4.582 4.582,1 9,1 C9.552,1 10,1.448 10,2 L10,8 L15.52,8 L19.219,3.375 C19.409,3.138 19.696,3 20,3 L22,3 Z M9,15 C12.0121827,15 14.5137056,12.833 15,10 L3,10 C3.48629442,12.833 5.98781726,15 9,15 Z M4.04378819,5.48370672 C3.51934827,6.21894094 3.15682281,7.07433809 3,8 L8,8 L8,3 C7.07433809,3.15682281 6.21894094,3.51934827 5.48370672,4.04378819 L6.68329939,5.24338086 C7.0814664,5.64154786 7.0814664,6.28513238 6.68329939,6.68329939 C6.48472505,6.88187373 6.22403259,6.98167006 5.96334012,6.98167006 C5.70264766,6.98167006 5.44195519,6.88187373 5.24338086,6.68329939 L4.04378819,5.48370672 Z M4,17 C5.657,17 7,18.343 7,20 C7,21.657 5.657,23 4,23 C2.343,23 1,21.657 1,20 C1,18.343 2.343,17 4,17 Z M14,17 C15.657,17 17,18.343 17,20 C17,21.657 15.657,23 14,23 C12.343,23 11,21.657 11,20 C11,18.343 12.343,17 14,17 Z M4,21 C4.551,21 5,20.551 5,20 C5,19.449 4.551,19 4,19 C3.449,19 3,19.449 3,20 C3,20.551 3.449,21 4,21 Z M14,21 C14.551,21 15,20.551 15,20 C15,19.449 14.551,19 14,19 C13.449,19 13,19.449 13,20 C13,20.551 13.449,21 14,21 Z" id="path-1"></path>
    </defs>
    <g id="icon/24x24_stroller_o" stroke="none" stroke-width="1" fill="none" fill-rule="evenodd">
        <mask id="mask-2" fill="white">
            <use xlink:href="#path-1"></use>
        </mask>
        <g id="24x24_stroller_o" fill-rule="nonzero"></g>
        <g id="COLOR/JJ_4.black" mask="url(#mask-2)" fill="#0F0A0A">
            <rect id="Rectangle" x="0" y="0" width="24" height="24"></rect>
        </g>
    </g>
</svg>