<?xml version="1.0" encoding="UTF-8"?>
<svg width="24px" height="24px" viewBox="0 0 24 24" version="1.1" xmlns="http://www.w3.org/2000/svg" xmlns:xlink="http://www.w3.org/1999/xlink">
    <!-- Generator: Sketch 49.1 (51147) - http://www.bohemiancoding.com/sketch -->
    <title>icon/24x24_tag_o</title>
    <desc>Created with Sketch.</desc>
    <defs>
        <path d="M20.7473668,11.7882854 L11.046038,2.08695652 L2.08695652,2.08695652 L2.08695652,11.0456821 L11.7886957,20.7373426 C11.9844191,20.9332839 12.2500078,21.0433808 12.5269565,21.0433808 C12.8039053,21.0433808 13.0694939,20.9332839 13.2656277,20.736932 L20.7460838,13.256476 C21.1497559,12.8494107 21.1494546,12.1927793 20.7473668,11.7882854 Z M22.2252598,14.7286957 L14.7417391,22.2122226 C14.1545689,22.8000464 13.3578028,23.1303374 12.5269565,23.1303374 C11.6961102,23.1303374 10.8993441,22.8000464 10.3130141,22.2130628 L0.306057569,12.216541 C0.110104487,12.020816 0,11.7552191 0,11.4782609 L0,1.04347826 C0,0.46718113 0.46718113,0 1.04347826,0 L11.4782609,0 C11.7550085,0 12.0204213,0.109937572 12.2161114,0.305627708 L22.2252598,10.3147826 C23.4390032,11.5357695 23.4390032,13.5077088 22.2252598,14.7286957 Z" id="path-1"></path>
    </defs>
    <g id="icon/24x24_tag_o" stroke="none" stroke-width="1" fill="none" fill-rule="evenodd">
        <mask id="mask-2" fill="white">
            <use xlink:href="#path-1"></use>
        </mask>
        <g id="24x24_tag_o" fill-rule="nonzero"></g>
        <g id="COLOR/JJ_4.black" mask="url(#mask-2)" fill="#0F0A0A">
            <rect id="Rectangle" x="0" y="0" width="24" height="24"></rect>
        </g>
    </g>
</svg>