<?xml version="1.0" encoding="UTF-8"?>
<svg width="24px" height="24px" viewBox="0 0 24 24" version="1.1" xmlns="http://www.w3.org/2000/svg" xmlns:xlink="http://www.w3.org/1999/xlink">
    <!-- Generator: Sketch 49.1 (51147) - http://www.bohemiancoding.com/sketch -->
    <title>icon/24x24_thumbs_down_o</title>
    <desc>Created with Sketch.</desc>
    <defs>
        <path d="M8.38095237,16.3640266 L3.30966917,16.363969 C2.34953002,16.3748421 1.43305488,15.9635183 0.802991607,15.2389455 C0.172928334,14.5143728 -0.107149775,13.5496603 0.0371911854,12.5986985 L1.54237525,2.78229044 C1.78707518,1.16871134 3.18317877,-0.0179766957 4.80277055,0.000402556679 L17.1082251,0.000402556679 C17.7107175,0.000402556679 18.1991342,0.488819193 18.1991342,1.09131165 L18.1991342,13.0913116 C18.1991342,13.2439498 18.1671026,13.3948893 18.1051104,13.5343718 L13.741474,23.3525536 C13.5663817,23.7465115 13.1757037,24.0004025 12.7445888,24.0004025 C10.3346189,24.0004025 8.38095237,22.046736 8.38095237,19.6367662 L8.38095237,16.3640266 Z M4.79043857,2.18215103 C4.24646399,2.17600138 3.78109612,2.57156405 3.69925901,3.11119745 L2.19405375,12.9277452 C2.1460232,13.2441878 2.23938256,13.5657586 2.44940365,13.8072829 C2.65942475,14.0488071 2.96491646,14.185915 3.297316,14.1822207 L9.47186146,14.1822207 C10.0743539,14.1822207 10.5627706,14.6706374 10.5627706,15.2731298 L10.5627706,19.6367662 C10.5627706,20.6104735 11.2006139,21.4352044 12.0812639,21.7159223 L16.017316,12.859805 L16.017316,2.18208031 L4.79043857,2.18215103 Z M18.1991342,12.000466 L20.0402423,12.0005732 C20.7438121,12.0130159 21.3482476,11.5121973 21.4718615,10.8257459 L21.4718615,3.35688011 C21.3482327,2.67042743 20.7432494,2.16961235 20.0209524,2.18222074 L18.1991342,2.18222074 L18.1991342,12.000466 Z M17.1082251,0.000402556679 L20.0016624,0.000573109406 C21.8328929,-0.031812616 23.3983332,1.31191292 23.6438348,3.12690133 L23.6536797,3.27312983 L23.6536797,10.9094935 L23.6438348,11.055722 C23.3983332,12.8707104 21.8328929,14.2144359 20.0209524,14.1822207 L17.1082251,14.1822207 C16.5057326,14.1822207 16.017316,13.6938041 16.017316,13.0913116 L16.017316,1.09131165 C16.017316,0.488819193 16.5057326,0.000402556679 17.1082251,0.000402556679 Z" id="path-1"></path>
    </defs>
    <g id="icon/24x24_thumbs_down_o" stroke="none" stroke-width="1" fill="none" fill-rule="evenodd">
        <mask id="mask-2" fill="white">
            <use xlink:href="#path-1"></use>
        </mask>
        <g id="24x24_thumbs_down_o" fill-rule="nonzero"></g>
        <g id="COLOR/JJ_4.black" mask="url(#mask-2)" fill="#0F0A0A">
            <rect id="Rectangle" x="0" y="0" width="24" height="24"></rect>
        </g>
    </g>
</svg>