<?xml version="1.0" encoding="UTF-8"?>
<svg width="24px" height="24px" viewBox="0 0 24 24" version="1.1" xmlns="http://www.w3.org/2000/svg" xmlns:xlink="http://www.w3.org/1999/xlink">
    <!-- Generator: Sketch 49.1 (51147) - http://www.bohemiancoding.com/sketch -->
    <title>icon/24x24_thumbs_up_o</title>
    <desc>Created with Sketch.</desc>
    <defs>
        <path d="M20.3440105,7.63643359 C21.3041496,7.62556053 22.2206247,8.03688429 22.850688,8.76145704 C23.4807513,9.4860298 23.7608294,10.4507423 23.6164885,11.401704 L22.1113044,21.2181121 C21.8666044,22.8316912 20.4705009,24.0183792 18.8509091,24 L6.54545455,24 C5.94296209,24 5.45454545,23.5115833 5.45454545,22.9090909 L5.45454545,10.9090909 C5.45454545,10.7564528 5.48657698,10.6055133 5.54856922,10.4660307 L9.91220564,0.647848942 C10.087298,0.253891113 10.477976,0 10.9090909,0 C13.3190607,0 15.2727273,1.95366655 15.2727273,4.36363636 L15.2727273,7.63637602 L20.3440105,7.63643359 Z M7.63636364,21.8183223 L18.8632411,21.8182515 C19.4072157,21.8244012 19.8725835,21.4288385 19.9544206,20.8892051 L21.4596259,11.0726573 C21.5076564,10.7562147 21.4142971,10.434644 21.204276,10.1931197 C20.9942549,9.95159542 20.6887632,9.81448752 20.3563636,9.81818182 L14.1818182,9.81818182 C13.5793258,9.81818182 13.0909091,9.32976518 13.0909091,8.72727273 L13.0909091,4.36363636 C13.0909091,3.38992909 12.4530657,2.56519812 11.5724158,2.2844803 L7.63636364,11.1405976 L7.63636364,21.8183223 Z M5.45454545,12 L3.27272727,12 C2.67023482,12 2.18181818,12.4884167 2.18181818,13.0909091 L2.18181818,20.7272727 C2.18181818,21.3297651 2.67023482,21.8181818 3.27272727,21.8181818 L5.45454545,21.8181818 L5.45454545,12 Z M6.54545455,24 L3.27272727,24 C1.46524991,24 0,22.53475 0,20.7272727 L0,13.0909091 C0,11.2834318 1.46524991,9.81818182 3.27272727,9.81818182 L6.54545455,9.81818182 C7.147947,9.81818182 7.63636364,10.3065985 7.63636364,10.9090909 L7.63636364,22.9090909 C7.63636364,23.5115833 7.147947,24 6.54545455,24 Z" id="path-1"></path>
    </defs>
    <g id="icon/24x24_thumbs_up_o" stroke="none" stroke-width="1" fill="none" fill-rule="evenodd">
        <mask id="mask-2" fill="white">
            <use xlink:href="#path-1"></use>
        </mask>
        <g id="24x24_thumbs_up_o" fill-rule="nonzero"></g>
        <g id="COLOR/JJ_4.black" mask="url(#mask-2)" fill="#0F0A0A">
            <rect id="Rectangle" x="0" y="0" width="24" height="24"></rect>
        </g>
    </g>
</svg>