<?xml version="1.0" encoding="UTF-8"?>
<svg width="24px" height="24px" viewBox="0 0 24 24" version="1.1" xmlns="http://www.w3.org/2000/svg" xmlns:xlink="http://www.w3.org/1999/xlink">
    <!-- Generator: Sketch 49.1 (51147) - http://www.bohemiancoding.com/sketch -->
    <title>icon/24x24_ticket_o</title>
    <desc>Created with Sketch.</desc>
    <defs>
        <path d="M21.0038,4 C22.6518,4 23.9998,5.349 23.9998,6.996 L23.9998,17 C23.9998,18.648 22.6518,19.996 21.0038,19.996 L10.9998,19.996 C10.4478,19.996 9.9998,19.548 9.9998,18.996 C9.9998,18.444 10.4478,17.996 10.9998,17.996 L21.0038,17.996 C21.5438,17.996 21.9998,17.54 21.9998,17 L21.9998,6.996 C21.9998,6.456 21.5438,6 21.0038,6 L10.9998,6 C10.4478,6 9.9998,5.553 9.9998,5 C9.9998,4.448 10.4478,4 10.9998,4 L21.0038,4 Z M7.9999,10.9961 C8.5519,10.9961 8.9999,11.4441 8.9999,11.9961 C8.9999,12.5481 8.5519,12.9961 7.9999,12.9961 C7.4479,12.9961 6.9999,12.5481 6.9999,11.9961 C6.9999,11.4441 7.4479,10.9961 7.9999,10.9961 Z M7.9999,14.9961 C8.5519,14.9961 8.9999,15.4441 8.9999,15.9961 C8.9999,16.5481 8.5519,16.9961 7.9999,16.9961 C7.4479,16.9961 6.9999,16.5481 6.9999,15.9961 C6.9999,15.4441 7.4479,14.9961 7.9999,14.9961 Z M7.9999,6.9961 C8.5519,6.9961 8.9999,7.4441 8.9999,7.9961 C8.9999,8.5481 8.5519,8.9961 7.9999,8.9961 C7.4479,8.9961 6.9999,8.5481 6.9999,7.9961 C6.9999,7.4441 7.4479,6.9961 7.9999,6.9961 Z M2.996,6 C2.456,6 2,6.456 2,6.996 L2,17 C2,17.54 2.456,17.996 2.996,17.996 L5,17.996 C5.552,17.996 6,18.444 6,18.996 C6,19.548 5.552,19.996 5,19.996 L2.996,19.996 C1.348,19.996 0,18.648 0,17 L0,6.996 C0,5.349 1.348,4 2.996,4 L5,4 C5.552,4 6,4.448 6,5 C6,5.553 5.552,6 5,6 L2.996,6 Z" id="path-1"></path>
    </defs>
    <g id="icon/24x24_ticket_o" stroke="none" stroke-width="1" fill="none" fill-rule="evenodd">
        <mask id="mask-2" fill="white">
            <use xlink:href="#path-1"></use>
        </mask>
        <g id="24x24_ticket_o" fill-rule="nonzero"></g>
        <g id="COLOR/JJ_4.black" mask="url(#mask-2)" fill="#0F0A0A">
            <rect id="Rectangle" x="0" y="0" width="24" height="24"></rect>
        </g>
    </g>
</svg>