<?xml version="1.0" encoding="UTF-8"?>
<svg width="24px" height="24px" viewBox="0 0 24 24" version="1.1" xmlns="http://www.w3.org/2000/svg" xmlns:xlink="http://www.w3.org/1999/xlink">
    <!-- Generator: Sketch 49.1 (51147) - http://www.bohemiancoding.com/sketch -->
    <title>icon/24x24_trash_o</title>
    <desc>Created with Sketch.</desc>
    <defs>
        <path d="M17.5,4.36363636 L21.9,4.36363636 C22.5075132,4.36363636 23,4.852053 23,5.45454545 C23,6.05703791 22.5075132,6.54545455 21.9,6.54545455 L20.8,6.54545455 L20.8,20.7272727 C20.8,22.53475 19.3225396,24 17.5,24 L6.5,24 C4.67746032,24 3.2,22.53475 3.2,20.7272727 L3.2,6.54545455 L2.1,6.54545455 C1.49248677,6.54545455 1,6.05703791 1,5.45454545 C1,4.852053 1.49248677,4.36363636 2.1,4.36363636 L6.5,4.36363636 L6.5,3.27272727 C6.5,1.46524991 7.97746033,0 9.8,0 L14.2,0 C16.0225396,0 17.5,1.46524991 17.5,3.27272727 L17.5,4.36363636 Z M15.3,4.36363636 L15.3,3.27272727 C15.3,2.67023482 14.8075132,2.18181818 14.2,2.18181818 L9.8,2.18181818 C9.19248678,2.18181818 8.7,2.67023482 8.7,3.27272727 L8.7,4.36363636 L15.3,4.36363636 Z M18.6,6.54545455 L5.4,6.54545455 L5.4,20.7272727 C5.4,21.3297651 5.89248678,21.8181818 6.5,21.8181818 L17.5,21.8181818 C18.1075132,21.8181818 18.6,21.3297651 18.6,20.7272727 L18.6,6.54545455 Z M8.7,10.9090909 C8.7,10.3065985 9.19248678,9.81818182 9.8,9.81818182 C10.4075132,9.81818182 10.9,10.3065985 10.9,10.9090909 L10.9,17.4545455 C10.9,18.0570379 10.4075132,18.5454545 9.8,18.5454545 C9.19248678,18.5454545 8.7,18.0570379 8.7,17.4545455 L8.7,10.9090909 Z M13.1,10.9090909 C13.1,10.3065985 13.5924868,9.81818182 14.2,9.81818182 C14.8075132,9.81818182 15.3,10.3065985 15.3,10.9090909 L15.3,17.4545455 C15.3,18.0570379 14.8075132,18.5454545 14.2,18.5454545 C13.5924868,18.5454545 13.1,18.0570379 13.1,17.4545455 L13.1,10.9090909 Z" id="path-1"></path>
    </defs>
    <g id="icon/24x24_trash_o" stroke="none" stroke-width="1" fill="none" fill-rule="evenodd">
        <mask id="mask-2" fill="white">
            <use xlink:href="#path-1"></use>
        </mask>
        <g id="24x24_trash_o" fill-rule="nonzero"></g>
        <g id="COLOR/JJ_4.black" mask="url(#mask-2)" fill="#0F0A0A">
            <rect id="Rectangle" x="0" y="0" width="24" height="24"></rect>
        </g>
    </g>
</svg>