<?xml version="1.0" encoding="UTF-8"?>
<svg width="24px" height="24px" viewBox="0 0 24 24" version="1.1" xmlns="http://www.w3.org/2000/svg" xmlns:xlink="http://www.w3.org/1999/xlink">
    <!-- Generator: Sketch 49.1 (51147) - http://www.bohemiancoding.com/sketch -->
    <title>icon/24x24_user_o</title>
    <desc>Created with Sketch.</desc>
    <defs>
        <path d="M23,22.8 C23,23.4627416 22.4527924,24 21.7777778,24 C21.1027631,24 20.5555556,23.4627416 20.5555556,22.8 L20.5555556,20.4 C20.5555556,18.411775 18.9139329,16.8 16.8888889,16.8 L7.11111111,16.8 C5.08606703,16.8 3.44444444,18.411775 3.44444444,20.4 L3.44444444,22.8 C3.44444444,23.4627416 2.89723692,24 2.22222222,24 C1.54720753,24 1,23.4627416 1,22.8 L1,20.4 C1,17.0862916 3.73603764,14.4 7.11111111,14.4 L16.8888889,14.4 C20.2639623,14.4 23,17.0862916 23,20.4 L23,22.8 Z M12,12 C8.62492653,12 5.88888889,9.3137085 5.88888889,6 C5.88888889,2.6862915 8.62492653,0 12,0 C15.3750734,0 18.1111111,2.6862915 18.1111111,6 C18.1111111,9.3137085 15.3750734,12 12,12 Z M12,9.6 C14.025044,9.6 15.6666667,7.9882251 15.6666667,6 C15.6666667,4.0117749 14.025044,2.4 12,2.4 C9.97495598,2.4 8.33333333,4.0117749 8.33333333,6 C8.33333333,7.9882251 9.97495598,9.6 12,9.6 Z" id="path-1"></path>
    </defs>
    <g id="icon/24x24_user_o" stroke="none" stroke-width="1" fill="none" fill-rule="evenodd">
        <mask id="mask-2" fill="white">
            <use xlink:href="#path-1"></use>
        </mask>
        <g id="24x24_user_o" fill-rule="nonzero"></g>
        <g id="COLOR/JJ_4.black" mask="url(#mask-2)" fill="#0F0A0A">
            <rect id="Rectangle" x="0" y="0" width="24" height="24"></rect>
        </g>
    </g>
</svg>