<?xml version="1.0" encoding="UTF-8"?>
<svg width="24px" height="24px" viewBox="0 0 24 24" version="1.1" xmlns="http://www.w3.org/2000/svg" xmlns:xlink="http://www.w3.org/1999/xlink">
    <!-- Generator: Sketch 49.1 (51147) - http://www.bohemiancoding.com/sketch -->
    <title>icon/24x24_x_circle_o</title>
    <desc>Created with Sketch.</desc>
    <defs>
        <path d="M13.5427785,12 L16.0441165,14.501338 C16.470143,14.9273645 16.470143,15.61809 16.0441165,16.0441165 C15.61809,16.470143 14.9273645,16.470143 14.501338,16.0441165 L12,13.5427785 L9.49866194,16.0441165 C9.07263544,16.470143 8.38191001,16.470143 7.95588351,16.0441165 C7.52985701,15.61809 7.52985701,14.9273645 7.95588351,14.501338 L10.4572215,12 L7.95588351,9.49866194 C7.52985701,9.07263544 7.52985701,8.38191001 7.95588351,7.95588351 C8.38191001,7.52985701 9.07263544,7.52985701 9.49866194,7.95588351 L12,10.4572215 L14.501338,7.95588351 C14.9273645,7.52985701 15.61809,7.52985701 16.0441165,7.95588351 C16.470143,8.38191001 16.470143,9.07263544 16.0441165,9.49866194 L13.5427785,12 Z M12,24 C5.372583,24 0,18.6274169 0,12 C0,5.372583 5.372583,0 12,0 C18.6274169,0 24,5.372583 24,12 C24,18.6274169 18.6274169,24 12,24 Z M12,21.8181818 C17.422432,21.8181818 21.8181818,17.422432 21.8181818,12 C21.8181818,6.57756791 17.422432,2.18181818 12,2.18181818 C6.57756791,2.18181818 2.18181818,6.57756791 2.18181818,12 C2.18181818,17.422432 6.57756791,21.8181818 12,21.8181818 Z" id="path-1"></path>
    </defs>
    <g id="icon/24x24_x_circle_o" stroke="none" stroke-width="1" fill="none" fill-rule="evenodd">
        <mask id="mask-2" fill="white">
            <use xlink:href="#path-1"></use>
        </mask>
        <g id="24x24_x_circle_o" fill-rule="nonzero"></g>
        <g id="COLOR/JJ_4.black" mask="url(#mask-2)" fill="#0F0A0A">
            <rect id="Rectangle" x="0" y="0" width="24" height="24"></rect>
        </g>
    </g>
</svg>