<?xml version="1.0" encoding="UTF-8"?>
<svg width="24px" height="24px" viewBox="0 0 24 24" version="1.1" xmlns="http://www.w3.org/2000/svg" xmlns:xlink="http://www.w3.org/1999/xlink">
    <!-- Generator: Sketch 49.1 (51147) - http://www.bohemiancoding.com/sketch -->
    <title>icon/24x24_x_o</title>
    <desc>Created with Sketch.</desc>
    <defs>
        <path d="M14.4243661,12 L23.4978973,21.0735312 C24.1673676,21.7430014 24.1673676,22.8284271 23.4978973,23.4978973 C22.8284271,24.1673676 21.7430014,24.1673676 21.0735312,23.4978973 L12,14.4243661 L2.92646876,23.4978973 C2.25699855,24.1673676 1.17157287,24.1673676 0.502102662,23.4978973 C-0.167367548,22.8284271 -0.167367548,21.7430014 0.502102662,21.0735312 L9.57563381,12 L0.502102662,2.92646876 C-0.167367548,2.25699855 -0.167367548,1.17157287 0.502102662,0.502102662 C1.17157287,-0.167367548 2.25699855,-0.167367548 2.92646876,0.502102662 L12,9.57563381 L21.0735312,0.502102662 C21.7430014,-0.167367548 22.8284271,-0.167367548 23.4978973,0.502102662 C24.1673676,1.17157287 24.1673676,2.25699855 23.4978973,2.92646876 L14.4243661,12 Z" id="path-1"></path>
    </defs>
    <g id="icon/24x24_x_o" stroke="none" stroke-width="1" fill="none" fill-rule="evenodd">
        <mask id="mask-2" fill="white">
            <use xlink:href="#path-1"></use>
        </mask>
        <g id="24x24_x_o" fill-rule="nonzero"></g>
        <g id="COLOR/JJ_4.black" mask="url(#mask-2)" fill="#0F0A0A">
            <rect id="Rectangle" x="0" y="0" width="24" height="24"></rect>
        </g>
    </g>
</svg>